<?xml version="1.0" encoding="utf-8" standalone="no"?>
<!DOCTYPE svg PUBLIC "-//W3C//DTD SVG 1.1//EN"
  "http://www.w3.org/Graphics/SVG/1.1/DTD/svg11.dtd">
<svg xmlns:xlink="http://www.w3.org/1999/xlink" width="443.715625pt" height="328.76pt" viewBox="0 0 443.715625 328.76" xmlns="http://www.w3.org/2000/svg" version="1.1">
 <metadata>
  <rdf:RDF xmlns:dc="http://purl.org/dc/elements/1.1/" xmlns:cc="http://creativecommons.org/ns#" xmlns:rdf="http://www.w3.org/1999/02/22-rdf-syntax-ns#">
   <cc:Work>
    <dc:type rdf:resource="http://purl.org/dc/dcmitype/StillImage"/>
    <dc:date>2025-01-21T14:40:44.520224</dc:date>
    <dc:format>image/svg+xml</dc:format>
    <dc:creator>
     <cc:Agent>
      <dc:title>Matplotlib v3.8.4, https://matplotlib.org/</dc:title>
     </cc:Agent>
    </dc:creator>
   </cc:Work>
  </rdf:RDF>
 </metadata>
 <defs>
  <style type="text/css">*{stroke-linejoin: round; stroke-linecap: butt}</style>
 </defs>
 <g id="figure_1">
  <g id="patch_1">
   <path d="M 0 328.76 
L 443.715625 328.76 
L 443.715625 0 
L 0 0 
z
" style="fill: #ffffff"/>
  </g>
  <g id="axes_1">
   <g id="patch_2">
    <path d="M 27.35125 302.90875 
L 435.93125 302.90875 
L 435.93125 0 
L 27.35125 0 
z
" style="fill: #ffffff"/>
   </g>
   <g id="PolyCollection_1">
    <defs>
     <path id="m4869ddcccb" d="M 27.35125 -25.908047 
L 27.35125 -25.85125 
L 29.404416 -25.85125 
L 31.457582 -25.85125 
L 33.510747 -25.85125 
L 35.563913 -25.85125 
L 37.617079 -25.85125 
L 39.670245 -25.85125 
L 41.723411 -25.85125 
L 43.776577 -25.85125 
L 45.829742 -25.85125 
L 47.882908 -25.85125 
L 49.936074 -25.85125 
L 51.98924 -25.85125 
L 54.042406 -25.85125 
L 56.095572 -25.85125 
L 58.148737 -25.85125 
L 60.201903 -25.85125 
L 62.255069 -25.85125 
L 64.308235 -25.85125 
L 66.361401 -25.85125 
L 68.414567 -25.85125 
L 70.467732 -25.85125 
L 72.520898 -25.85125 
L 74.574064 -25.85125 
L 76.62723 -25.85125 
L 78.680396 -25.85125 
L 80.733562 -25.85125 
L 82.786727 -25.85125 
L 84.839893 -25.85125 
L 86.893059 -25.85125 
L 88.946225 -25.85125 
L 90.999391 -25.85125 
L 93.052557 -25.85125 
L 95.105722 -25.85125 
L 97.158888 -25.85125 
L 99.212054 -25.85125 
L 101.26522 -25.85125 
L 103.318386 -25.85125 
L 105.371552 -25.85125 
L 107.424717 -25.85125 
L 109.477883 -25.85125 
L 111.531049 -25.85125 
L 113.584215 -25.85125 
L 115.637381 -25.85125 
L 117.690546 -25.85125 
L 119.743712 -25.85125 
L 121.796878 -25.85125 
L 123.850044 -25.85125 
L 125.90321 -25.85125 
L 127.956376 -25.85125 
L 130.009541 -25.85125 
L 132.062707 -25.85125 
L 134.115873 -25.85125 
L 136.169039 -25.85125 
L 138.222205 -25.85125 
L 140.275371 -25.85125 
L 142.328536 -25.85125 
L 144.381702 -25.85125 
L 146.434868 -25.85125 
L 148.488034 -25.85125 
L 150.5412 -25.85125 
L 152.594366 -25.85125 
L 154.647531 -25.85125 
L 156.700697 -25.85125 
L 158.753863 -25.85125 
L 160.807029 -25.85125 
L 162.860195 -25.85125 
L 164.913361 -25.85125 
L 166.966526 -25.85125 
L 169.019692 -25.85125 
L 171.072858 -25.85125 
L 173.126024 -25.85125 
L 175.17919 -25.85125 
L 177.232356 -25.85125 
L 179.285521 -25.85125 
L 181.338687 -25.85125 
L 183.391853 -25.85125 
L 185.445019 -25.85125 
L 187.498185 -25.85125 
L 189.551351 -25.85125 
L 191.604516 -25.85125 
L 193.657682 -25.85125 
L 195.710848 -25.85125 
L 197.764014 -25.85125 
L 199.81718 -25.85125 
L 201.870345 -25.85125 
L 203.923511 -25.85125 
L 205.976677 -25.85125 
L 208.029843 -25.85125 
L 210.083009 -25.85125 
L 212.136175 -25.85125 
L 214.18934 -25.85125 
L 216.242506 -25.85125 
L 218.295672 -25.85125 
L 220.348838 -25.85125 
L 222.402004 -25.85125 
L 224.45517 -25.85125 
L 226.508335 -25.85125 
L 228.561501 -25.85125 
L 230.614667 -25.85125 
L 232.667833 -25.85125 
L 234.720999 -25.85125 
L 236.774165 -25.85125 
L 238.82733 -25.85125 
L 240.880496 -25.85125 
L 242.933662 -25.85125 
L 244.986828 -25.85125 
L 247.039994 -25.85125 
L 249.09316 -25.85125 
L 251.146325 -25.85125 
L 253.199491 -25.85125 
L 255.252657 -25.85125 
L 257.305823 -25.85125 
L 259.358989 -25.85125 
L 261.412155 -25.85125 
L 263.46532 -25.85125 
L 265.518486 -25.85125 
L 267.571652 -25.85125 
L 269.624818 -25.85125 
L 271.677984 -25.85125 
L 273.731149 -25.85125 
L 275.784315 -25.85125 
L 277.837481 -25.85125 
L 279.890647 -25.85125 
L 281.943813 -25.85125 
L 283.996979 -25.85125 
L 286.050144 -25.85125 
L 288.10331 -25.85125 
L 290.156476 -25.85125 
L 292.209642 -25.85125 
L 294.262808 -25.85125 
L 296.315974 -25.85125 
L 298.369139 -25.85125 
L 300.422305 -25.85125 
L 302.475471 -25.85125 
L 304.528637 -25.85125 
L 306.581803 -25.85125 
L 308.634969 -25.85125 
L 310.688134 -25.85125 
L 312.7413 -25.85125 
L 314.794466 -25.85125 
L 316.847632 -25.85125 
L 318.900798 -25.85125 
L 320.953964 -25.85125 
L 323.007129 -25.85125 
L 325.060295 -25.85125 
L 327.113461 -25.85125 
L 329.166627 -25.85125 
L 331.219793 -25.85125 
L 333.272959 -25.85125 
L 335.326124 -25.85125 
L 337.37929 -25.85125 
L 339.432456 -25.85125 
L 341.485622 -25.85125 
L 343.538788 -25.85125 
L 345.591954 -25.85125 
L 347.645119 -25.85125 
L 349.698285 -25.85125 
L 351.751451 -25.85125 
L 353.804617 -25.85125 
L 355.857783 -25.85125 
L 357.910948 -25.85125 
L 359.964114 -25.85125 
L 362.01728 -25.85125 
L 364.070446 -25.85125 
L 366.123612 -25.85125 
L 368.176778 -25.85125 
L 370.229943 -25.85125 
L 372.283109 -25.85125 
L 374.336275 -25.85125 
L 376.389441 -25.85125 
L 378.442607 -25.85125 
L 380.495773 -25.85125 
L 382.548938 -25.85125 
L 384.602104 -25.85125 
L 386.65527 -25.85125 
L 388.708436 -25.85125 
L 390.761602 -25.85125 
L 392.814768 -25.85125 
L 394.867933 -25.85125 
L 396.921099 -25.85125 
L 398.974265 -25.85125 
L 401.027431 -25.85125 
L 403.080597 -25.85125 
L 405.133763 -25.85125 
L 407.186928 -25.85125 
L 409.240094 -25.85125 
L 411.29326 -25.85125 
L 413.346426 -25.85125 
L 415.399592 -25.85125 
L 417.452758 -25.85125 
L 419.505923 -25.85125 
L 421.559089 -25.85125 
L 423.612255 -25.85125 
L 425.665421 -25.85125 
L 427.718587 -25.85125 
L 429.771753 -25.85125 
L 431.824918 -25.85125 
L 433.878084 -25.85125 
L 435.93125 -25.85125 
L 435.93125 -25.921826 
L 435.93125 -25.921826 
L 433.878084 -25.912216 
L 431.824918 -25.914975 
L 429.771753 -25.909794 
L 427.718587 -25.89783 
L 425.665421 -25.890466 
L 423.612255 -25.880041 
L 421.559089 -25.862588 
L 419.505923 -25.853237 
L 417.452758 -25.851658 
L 415.399592 -25.855584 
L 413.346426 -25.883968 
L 411.29326 -25.965187 
L 409.240094 -26.039061 
L 407.186928 -26.011571 
L 405.133763 -25.9503 
L 403.080597 -25.929922 
L 401.027431 -25.922308 
L 398.974265 -25.903078 
L 396.921099 -25.890041 
L 394.867933 -25.893265 
L 392.814768 -25.921266 
L 390.761602 -25.993276 
L 388.708436 -26.031329 
L 386.65527 -25.989108 
L 384.602104 -25.948266 
L 382.548938 -25.942293 
L 380.495773 -25.940397 
L 378.442607 -25.9218 
L 376.389441 -25.898141 
L 374.336275 -25.892085 
L 372.283109 -25.891872 
L 370.229943 -25.890936 
L 368.176778 -25.888018 
L 366.123612 -25.888538 
L 364.070446 -25.890996 
L 362.01728 -25.922393 
L 359.964114 -25.994007 
L 357.910948 -26.032781 
L 355.857783 -26.013907 
L 353.804617 -26.030551 
L 351.751451 -26.060067 
L 349.698285 -26.024183 
L 347.645119 -25.962813 
L 345.591954 -25.92586 
L 343.538788 -25.948684 
L 341.485622 -26.00178 
L 339.432456 -26.026031 
L 337.37929 -26.014644 
L 335.326124 -26.001074 
L 333.272959 -25.997673 
L 331.219793 -25.982222 
L 329.166627 -26.003943 
L 327.113461 -26.09612 
L 325.060295 -26.229049 
L 323.007129 -26.320469 
L 320.953964 -26.397539 
L 318.900798 -26.533811 
L 316.847632 -26.629154 
L 314.794466 -26.654841 
L 312.7413 -26.729571 
L 310.688134 -26.812039 
L 308.634969 -26.706084 
L 306.581803 -26.468922 
L 304.528637 -26.320199 
L 302.475471 -26.284541 
L 300.422305 -26.261528 
L 298.369139 -26.250497 
L 296.315974 -26.340428 
L 294.262808 -26.466685 
L 292.209642 -26.48707 
L 290.156476 -26.488528 
L 288.10331 -26.5984 
L 286.050144 -26.72819 
L 283.996979 -26.800466 
L 281.943813 -26.846848 
L 279.890647 -26.819792 
L 277.837481 -26.873613 
L 275.784315 -27.167143 
L 273.731149 -27.526999 
L 271.677984 -27.6218 
L 269.624818 -27.462651 
L 267.571652 -27.443986 
L 265.518486 -27.773529 
L 263.46532 -28.139417 
L 261.412155 -28.371813 
L 259.358989 -28.644048 
L 257.305823 -28.863504 
L 255.252657 -29.087454 
L 253.199491 -29.463779 
L 251.146325 -30.272416 
L 249.09316 -31.755189 
L 247.039994 -33.458995 
L 244.986828 -35.564518 
L 242.933662 -39.228173 
L 240.880496 -47.271868 
L 238.82733 -66.169056 
L 236.774165 -105.475452 
L 234.720999 -165.856622 
L 232.667833 -230.526618 
L 230.614667 -283.99689 
L 228.561501 -314.335774 
L 226.508335 -313.741028 
L 224.45517 -288.10155 
L 222.402004 -242.492058 
L 220.348838 -186.10809 
L 218.295672 -135.853093 
L 216.242506 -100.523508 
L 214.18934 -76.835233 
L 212.136175 -60.603249 
L 210.083009 -50.156836 
L 208.029843 -43.117698 
L 205.976677 -37.875591 
L 203.923511 -34.661188 
L 201.870345 -32.60597 
L 199.81718 -30.810785 
L 197.764014 -29.59893 
L 195.710848 -28.777156 
L 193.657682 -28.246656 
L 191.604516 -27.97181 
L 189.551351 -27.688238 
L 187.498185 -27.450104 
L 185.445019 -27.178735 
L 183.391853 -26.786429 
L 181.338687 -26.545889 
L 179.285521 -26.531252 
L 177.232356 -26.520155 
L 175.17919 -26.485172 
L 173.126024 -26.560348 
L 171.072858 -26.704133 
L 169.019692 -26.739332 
L 166.966526 -26.675348 
L 164.913361 -26.611687 
L 162.860195 -26.638999 
L 160.807029 -26.720732 
L 158.753863 -26.687525 
L 156.700697 -26.604999 
L 154.647531 -26.615045 
L 152.594366 -26.688784 
L 150.5412 -26.633949 
L 148.488034 -26.392698 
L 146.434868 -26.159279 
L 144.381702 -26.034571 
L 142.328536 -25.972416 
L 140.275371 -25.952138 
L 138.222205 -25.983007 
L 136.169039 -26.05909 
L 134.115873 -26.115901 
L 132.062707 -26.12855 
L 130.009541 -26.099458 
L 127.956376 -26.05656 
L 125.90321 -26.057567 
L 123.850044 -26.094409 
L 121.796878 -26.113399 
L 119.743712 -26.136882 
L 117.690546 -26.197548 
L 115.637381 -26.230065 
L 113.584215 -26.171163 
L 111.531049 -26.132222 
L 109.477883 -26.162562 
L 107.424717 -26.144264 
L 105.371552 -26.076861 
L 103.318386 -26.055142 
L 101.26522 -26.135346 
L 99.212054 -26.256756 
L 97.158888 -26.254952 
L 95.105722 -26.130664 
L 93.052557 -26.062193 
L 90.999391 -26.113169 
L 88.946225 -26.137496 
L 86.893059 -26.057721 
L 84.839893 -25.94953 
L 82.786727 -25.891465 
L 80.733562 -25.883721 
L 78.680396 -25.874643 
L 76.62723 -25.860518 
L 74.574064 -25.867883 
L 72.520898 -25.919426 
L 70.467732 -25.99071 
L 68.414567 -26.009958 
L 66.361401 -25.988574 
L 64.308235 -25.960763 
L 62.255069 -25.921756 
L 60.201903 -25.885092 
L 58.148737 -25.879244 
L 56.095572 -25.881042 
L 54.042406 -25.866998 
L 51.98924 -25.854906 
L 49.936074 -25.8531 
L 47.882908 -25.8616 
L 45.829742 -25.886092 
L 43.776577 -25.922555 
L 41.723411 -25.965213 
L 39.670245 -26.022199 
L 37.617079 -26.071148 
L 35.563913 -26.029002 
L 33.510747 -25.929308 
L 31.457582 -25.884199 
L 29.404416 -25.899527 
L 27.35125 -25.908047 
z
" style="stroke: #1f77b4"/>
    </defs>
    <g clip-path="url(#pfa5c2d3d1e)">
     <use xlink:href="#m4869ddcccb" x="0" y="328.76" style="fill: #1f77b4; fill-opacity: 0.25; stroke: #1f77b4"/>
    </g>
   </g>
   <g id="PolyCollection_2">
    <defs>
     <path id="mb9bae13898" d="M 27.35125 -28.626182 
L 27.35125 -25.85125 
L 29.404416 -25.85125 
L 31.457582 -25.85125 
L 33.510747 -25.85125 
L 35.563913 -25.85125 
L 37.617079 -25.85125 
L 39.670245 -25.85125 
L 41.723411 -25.85125 
L 43.776577 -25.85125 
L 45.829742 -25.85125 
L 47.882908 -25.85125 
L 49.936074 -25.85125 
L 51.98924 -25.85125 
L 54.042406 -25.85125 
L 56.095572 -25.85125 
L 58.148737 -25.85125 
L 60.201903 -25.85125 
L 62.255069 -25.85125 
L 64.308235 -25.85125 
L 66.361401 -25.85125 
L 68.414567 -25.85125 
L 70.467732 -25.85125 
L 72.520898 -25.85125 
L 74.574064 -25.85125 
L 76.62723 -25.85125 
L 78.680396 -25.85125 
L 80.733562 -25.85125 
L 82.786727 -25.85125 
L 84.839893 -25.85125 
L 86.893059 -25.85125 
L 88.946225 -25.85125 
L 90.999391 -25.85125 
L 93.052557 -25.85125 
L 95.105722 -25.85125 
L 97.158888 -25.85125 
L 99.212054 -25.85125 
L 101.26522 -25.85125 
L 103.318386 -25.85125 
L 105.371552 -25.85125 
L 107.424717 -25.85125 
L 109.477883 -25.85125 
L 111.531049 -25.85125 
L 113.584215 -25.85125 
L 115.637381 -25.85125 
L 117.690546 -25.85125 
L 119.743712 -25.85125 
L 121.796878 -25.85125 
L 123.850044 -25.85125 
L 125.90321 -25.85125 
L 127.956376 -25.85125 
L 130.009541 -25.85125 
L 132.062707 -25.85125 
L 134.115873 -25.85125 
L 136.169039 -25.85125 
L 138.222205 -25.85125 
L 140.275371 -25.85125 
L 142.328536 -25.85125 
L 144.381702 -25.85125 
L 146.434868 -25.85125 
L 148.488034 -25.85125 
L 150.5412 -25.85125 
L 152.594366 -25.85125 
L 154.647531 -25.85125 
L 156.700697 -25.85125 
L 158.753863 -25.85125 
L 160.807029 -25.85125 
L 162.860195 -25.85125 
L 164.913361 -25.85125 
L 166.966526 -25.85125 
L 169.019692 -25.85125 
L 171.072858 -25.85125 
L 173.126024 -25.85125 
L 175.17919 -25.85125 
L 177.232356 -25.85125 
L 179.285521 -25.85125 
L 181.338687 -25.85125 
L 183.391853 -25.85125 
L 185.445019 -25.85125 
L 187.498185 -25.85125 
L 189.551351 -25.85125 
L 191.604516 -25.85125 
L 193.657682 -25.85125 
L 195.710848 -25.85125 
L 197.764014 -25.85125 
L 199.81718 -25.85125 
L 201.870345 -25.85125 
L 203.923511 -25.85125 
L 205.976677 -25.85125 
L 208.029843 -25.85125 
L 210.083009 -25.85125 
L 212.136175 -25.85125 
L 214.18934 -25.85125 
L 216.242506 -25.85125 
L 218.295672 -25.85125 
L 220.348838 -25.85125 
L 222.402004 -25.85125 
L 224.45517 -25.85125 
L 226.508335 -25.85125 
L 228.561501 -25.85125 
L 230.614667 -25.85125 
L 232.667833 -25.85125 
L 234.720999 -25.85125 
L 236.774165 -25.85125 
L 238.82733 -25.85125 
L 240.880496 -25.85125 
L 242.933662 -25.85125 
L 244.986828 -25.85125 
L 247.039994 -25.85125 
L 249.09316 -25.85125 
L 251.146325 -25.85125 
L 253.199491 -25.85125 
L 255.252657 -25.85125 
L 257.305823 -25.85125 
L 259.358989 -25.85125 
L 261.412155 -25.85125 
L 263.46532 -25.85125 
L 265.518486 -25.85125 
L 267.571652 -25.85125 
L 269.624818 -25.85125 
L 271.677984 -25.85125 
L 273.731149 -25.85125 
L 275.784315 -25.85125 
L 277.837481 -25.85125 
L 279.890647 -25.85125 
L 281.943813 -25.85125 
L 283.996979 -25.85125 
L 286.050144 -25.85125 
L 288.10331 -25.85125 
L 290.156476 -25.85125 
L 292.209642 -25.85125 
L 294.262808 -25.85125 
L 296.315974 -25.85125 
L 298.369139 -25.85125 
L 300.422305 -25.85125 
L 302.475471 -25.85125 
L 304.528637 -25.85125 
L 306.581803 -25.85125 
L 308.634969 -25.85125 
L 310.688134 -25.85125 
L 312.7413 -25.85125 
L 314.794466 -25.85125 
L 316.847632 -25.85125 
L 318.900798 -25.85125 
L 320.953964 -25.85125 
L 323.007129 -25.85125 
L 325.060295 -25.85125 
L 327.113461 -25.85125 
L 329.166627 -25.85125 
L 331.219793 -25.85125 
L 333.272959 -25.85125 
L 335.326124 -25.85125 
L 337.37929 -25.85125 
L 339.432456 -25.85125 
L 341.485622 -25.85125 
L 343.538788 -25.85125 
L 345.591954 -25.85125 
L 347.645119 -25.85125 
L 349.698285 -25.85125 
L 351.751451 -25.85125 
L 353.804617 -25.85125 
L 355.857783 -25.85125 
L 357.910948 -25.85125 
L 359.964114 -25.85125 
L 362.01728 -25.85125 
L 364.070446 -25.85125 
L 366.123612 -25.85125 
L 368.176778 -25.85125 
L 370.229943 -25.85125 
L 372.283109 -25.85125 
L 374.336275 -25.85125 
L 376.389441 -25.85125 
L 378.442607 -25.85125 
L 380.495773 -25.85125 
L 382.548938 -25.85125 
L 384.602104 -25.85125 
L 386.65527 -25.85125 
L 388.708436 -25.85125 
L 390.761602 -25.85125 
L 392.814768 -25.85125 
L 394.867933 -25.85125 
L 396.921099 -25.85125 
L 398.974265 -25.85125 
L 401.027431 -25.85125 
L 403.080597 -25.85125 
L 405.133763 -25.85125 
L 407.186928 -25.85125 
L 409.240094 -25.85125 
L 411.29326 -25.85125 
L 413.346426 -25.85125 
L 415.399592 -25.85125 
L 417.452758 -25.85125 
L 419.505923 -25.85125 
L 421.559089 -25.85125 
L 423.612255 -25.85125 
L 425.665421 -25.85125 
L 427.718587 -25.85125 
L 429.771753 -25.85125 
L 431.824918 -25.85125 
L 433.878084 -25.85125 
L 435.93125 -25.85125 
L 435.93125 -25.971584 
L 435.93125 -25.971584 
L 433.878084 -25.990481 
L 431.824918 -26.010653 
L 429.771753 -26.032013 
L 427.718587 -26.05443 
L 425.665421 -26.077604 
L 423.612255 -26.100948 
L 421.559089 -26.123525 
L 419.505923 -26.144069 
L 417.452758 -26.161125 
L 415.399592 -26.173274 
L 413.346426 -26.179422 
L 411.29326 -26.179071 
L 409.240094 -26.172486 
L 407.186928 -26.160696 
L 405.133763 -26.145325 
L 403.080597 -26.128291 
L 401.027431 -26.111457 
L 398.974265 -26.096347 
L 396.921099 -26.083979 
L 394.867933 -26.074848 
L 392.814768 -26.069029 
L 390.761602 -26.066336 
L 388.708436 -26.066476 
L 386.65527 -26.069128 
L 384.602104 -26.073965 
L 382.548938 -26.080599 
L 380.495773 -26.088512 
L 378.442607 -26.096999 
L 376.389441 -26.105157 
L 374.336275 -26.111929 
L 372.283109 -26.116199 
L 370.229943 -26.116917 
L 368.176778 -26.113272 
L 366.123612 -26.104864 
L 364.070446 -26.091867 
L 362.01728 -26.075137 
L 359.964114 -26.05621 
L 357.910948 -26.037152 
L 355.857783 -26.020286 
L 353.804617 -26.007809 
L 351.751451 -26.001424 
L 349.698285 -26.002042 
L 347.645119 -26.009665 
L 345.591954 -26.023468 
L 343.538788 -26.042069 
L 341.485622 -26.063921 
L 339.432456 -26.08772 
L 337.37929 -26.112718 
L 335.326124 -26.138854 
L 333.272959 -26.16665 
L 331.219793 -26.1969 
L 329.166627 -26.230232 
L 327.113461 -26.266653 
L 325.060295 -26.305243 
L 323.007129 -26.34409 
L 320.953964 -26.380534 
L 318.900798 -26.411632 
L 316.847632 -26.434726 
L 314.794466 -26.447899 
L 312.7413 -26.450183 
L 310.688134 -26.441505 
L 308.634969 -26.422448 
L 306.581803 -26.394 
L 304.528637 -26.35745 
L 302.475471 -26.314444 
L 300.422305 -26.267151 
L 298.369139 -26.218374 
L 296.315974 -26.171491 
L 294.262808 -26.130155 
L 292.209642 -26.097801 
L 290.156476 -26.077085 
L 288.10331 -26.069363 
L 286.050144 -26.074372 
L 283.996979 -26.090199 
L 281.943813 -26.113603 
L 279.890647 -26.140727 
L 277.837481 -26.168116 
L 275.784315 -26.193944 
L 273.731149 -26.219297 
L 271.677984 -26.249519 
L 269.624818 -26.295919 
L 267.571652 -26.378672 
L 265.518486 -26.532446 
L 263.46532 -26.816894 
L 261.412155 -27.334227 
L 259.358989 -28.254968 
L 257.305823 -29.849732 
L 255.252657 -32.519201 
L 253.199491 -36.806883 
L 251.146325 -43.372848 
L 249.09316 -52.906037 
L 247.039994 -65.963717 
L 244.986828 -82.75155 
L 242.933662 -102.89226 
L 240.880496 -125.261689 
L 238.82733 -147.979547 
L 236.774165 -168.61364 
L 234.720999 -184.591 
L 232.667833 -193.728173 
L 230.614667 -194.731139 
L 228.561501 -187.506235 
L 226.508335 -173.178093 
L 224.45517 -153.809445 
L 222.402004 -131.918525 
L 220.348838 -109.949306 
L 218.295672 -89.846428 
L 216.242506 -72.828958 
L 214.18934 -59.377011 
L 212.136175 -49.378125 
L 210.083009 -42.348521 
L 208.029843 -37.64975 
L 205.976677 -34.650391 
L 203.923511 -32.816794 
L 201.870345 -31.742833 
L 199.81718 -31.140682 
L 197.764014 -30.814841 
L 195.710848 -30.6351 
L 193.657682 -30.516044 
L 191.604516 -30.404299 
L 189.551351 -30.271209 
L 187.498185 -30.107787 
L 185.445019 -29.919669 
L 183.391853 -29.721328 
L 181.338687 -29.530122 
L 179.285521 -29.361325 
L 177.232356 -29.225075 
L 175.17919 -29.125459 
L 173.126024 -29.061245 
L 171.072858 -29.027404 
L 169.019692 -29.016657 
L 166.966526 -29.020709 
L 164.913361 -29.031236 
L 162.860195 -29.040813 
L 160.807029 -29.043842 
L 158.753863 -29.03726 
L 156.700697 -29.020702 
L 154.647531 -28.995939 
L 152.594366 -28.96577 
L 150.5412 -28.932842 
L 148.488034 -28.898925 
L 146.434868 -28.86491 
L 144.381702 -28.831382 
L 142.328536 -28.799318 
L 140.275371 -28.770431 
L 138.222205 -28.746914 
L 136.169039 -28.730696 
L 134.115873 -28.722599 
L 132.062707 -28.721788 
L 130.009541 -28.725801 
L 127.956376 -28.731145 
L 125.90321 -28.734255 
L 123.850044 -28.732493 
L 121.796878 -28.724851 
L 119.743712 -28.712204 
L 117.690546 -28.697048 
L 115.637381 -28.682894 
L 113.584215 -28.673544 
L 111.531049 -28.6725 
L 109.477883 -28.682687 
L 107.424717 -28.706527 
L 105.371552 -28.746251 
L 103.318386 -28.804231 
L 101.26522 -28.883057 
L 99.212054 -28.98513 
L 97.158888 -29.111675 
L 95.105722 -29.261328 
L 93.052557 -29.428676 
L 90.999391 -29.603381 
L 88.946225 -29.770445 
L 86.893059 -29.911947 
L 84.839893 -30.010095 
L 82.786727 -30.050906 
L 80.733562 -30.027493 
L 78.680396 -29.941972 
L 76.62723 -29.805368 
L 74.574064 -29.635524 
L 72.520898 -29.453601 
L 70.467732 -29.280123 
L 68.414567 -29.131532 
L 66.361401 -29.017972 
L 64.308235 -28.942601 
L 62.255069 -28.90235 
L 60.201903 -28.889769 
L 58.148737 -28.895433 
L 56.095572 -28.910353 
L 54.042406 -28.927852 
L 51.98924 -28.944508 
L 49.936074 -28.959938 
L 47.882908 -28.975563 
L 45.829742 -28.992748 
L 43.776577 -29.01099 
L 41.723411 -29.026837 
L 39.670245 -29.034 
L 37.617079 -29.024726 
L 35.563913 -28.992022 
L 33.510747 -28.932057 
L 31.457582 -28.845923 
L 29.404416 -28.740214 
L 27.35125 -28.626182 
z
" style="stroke: #ff7f0e"/>
    </defs>
    <g clip-path="url(#pfa5c2d3d1e)">
     <use xlink:href="#mb9bae13898" x="0" y="328.76" style="fill: #ff7f0e; fill-opacity: 0.25; stroke: #ff7f0e"/>
    </g>
   </g>
   <g id="PolyCollection_3">
    <defs>
     <path id="md7d3ab65c4" d="M 27.35125 -25.944463 
L 27.35125 -25.85125 
L 29.404416 -25.85125 
L 31.457582 -25.85125 
L 33.510747 -25.85125 
L 35.563913 -25.85125 
L 37.617079 -25.85125 
L 39.670245 -25.85125 
L 41.723411 -25.85125 
L 43.776577 -25.85125 
L 45.829742 -25.85125 
L 47.882908 -25.85125 
L 49.936074 -25.85125 
L 51.98924 -25.85125 
L 54.042406 -25.85125 
L 56.095572 -25.85125 
L 58.148737 -25.85125 
L 60.201903 -25.85125 
L 62.255069 -25.85125 
L 64.308235 -25.85125 
L 66.361401 -25.85125 
L 68.414567 -25.85125 
L 70.467732 -25.85125 
L 72.520898 -25.85125 
L 74.574064 -25.85125 
L 76.62723 -25.85125 
L 78.680396 -25.85125 
L 80.733562 -25.85125 
L 82.786727 -25.85125 
L 84.839893 -25.85125 
L 86.893059 -25.85125 
L 88.946225 -25.85125 
L 90.999391 -25.85125 
L 93.052557 -25.85125 
L 95.105722 -25.85125 
L 97.158888 -25.85125 
L 99.212054 -25.85125 
L 101.26522 -25.85125 
L 103.318386 -25.85125 
L 105.371552 -25.85125 
L 107.424717 -25.85125 
L 109.477883 -25.85125 
L 111.531049 -25.85125 
L 113.584215 -25.85125 
L 115.637381 -25.85125 
L 117.690546 -25.85125 
L 119.743712 -25.85125 
L 121.796878 -25.85125 
L 123.850044 -25.85125 
L 125.90321 -25.85125 
L 127.956376 -25.85125 
L 130.009541 -25.85125 
L 132.062707 -25.85125 
L 134.115873 -25.85125 
L 136.169039 -25.85125 
L 138.222205 -25.85125 
L 140.275371 -25.85125 
L 142.328536 -25.85125 
L 144.381702 -25.85125 
L 146.434868 -25.85125 
L 148.488034 -25.85125 
L 150.5412 -25.85125 
L 152.594366 -25.85125 
L 154.647531 -25.85125 
L 156.700697 -25.85125 
L 158.753863 -25.85125 
L 160.807029 -25.85125 
L 162.860195 -25.85125 
L 164.913361 -25.85125 
L 166.966526 -25.85125 
L 169.019692 -25.85125 
L 171.072858 -25.85125 
L 173.126024 -25.85125 
L 175.17919 -25.85125 
L 177.232356 -25.85125 
L 179.285521 -25.85125 
L 181.338687 -25.85125 
L 183.391853 -25.85125 
L 185.445019 -25.85125 
L 187.498185 -25.85125 
L 189.551351 -25.85125 
L 191.604516 -25.85125 
L 193.657682 -25.85125 
L 195.710848 -25.85125 
L 197.764014 -25.85125 
L 199.81718 -25.85125 
L 201.870345 -25.85125 
L 203.923511 -25.85125 
L 205.976677 -25.85125 
L 208.029843 -25.85125 
L 210.083009 -25.85125 
L 212.136175 -25.85125 
L 214.18934 -25.85125 
L 216.242506 -25.85125 
L 218.295672 -25.85125 
L 220.348838 -25.85125 
L 222.402004 -25.85125 
L 224.45517 -25.85125 
L 226.508335 -25.85125 
L 228.561501 -25.85125 
L 230.614667 -25.85125 
L 232.667833 -25.85125 
L 234.720999 -25.85125 
L 236.774165 -25.85125 
L 238.82733 -25.85125 
L 240.880496 -25.85125 
L 242.933662 -25.85125 
L 244.986828 -25.85125 
L 247.039994 -25.85125 
L 249.09316 -25.85125 
L 251.146325 -25.85125 
L 253.199491 -25.85125 
L 255.252657 -25.85125 
L 257.305823 -25.85125 
L 259.358989 -25.85125 
L 261.412155 -25.85125 
L 263.46532 -25.85125 
L 265.518486 -25.85125 
L 267.571652 -25.85125 
L 269.624818 -25.85125 
L 271.677984 -25.85125 
L 273.731149 -25.85125 
L 275.784315 -25.85125 
L 277.837481 -25.85125 
L 279.890647 -25.85125 
L 281.943813 -25.85125 
L 283.996979 -25.85125 
L 286.050144 -25.85125 
L 288.10331 -25.85125 
L 290.156476 -25.85125 
L 292.209642 -25.85125 
L 294.262808 -25.85125 
L 296.315974 -25.85125 
L 298.369139 -25.85125 
L 300.422305 -25.85125 
L 302.475471 -25.85125 
L 304.528637 -25.85125 
L 306.581803 -25.85125 
L 308.634969 -25.85125 
L 310.688134 -25.85125 
L 312.7413 -25.85125 
L 314.794466 -25.85125 
L 316.847632 -25.85125 
L 318.900798 -25.85125 
L 320.953964 -25.85125 
L 323.007129 -25.85125 
L 325.060295 -25.85125 
L 327.113461 -25.85125 
L 329.166627 -25.85125 
L 331.219793 -25.85125 
L 333.272959 -25.85125 
L 335.326124 -25.85125 
L 337.37929 -25.85125 
L 339.432456 -25.85125 
L 341.485622 -25.85125 
L 343.538788 -25.85125 
L 345.591954 -25.85125 
L 347.645119 -25.85125 
L 349.698285 -25.85125 
L 351.751451 -25.85125 
L 353.804617 -25.85125 
L 355.857783 -25.85125 
L 357.910948 -25.85125 
L 359.964114 -25.85125 
L 362.01728 -25.85125 
L 364.070446 -25.85125 
L 366.123612 -25.85125 
L 368.176778 -25.85125 
L 370.229943 -25.85125 
L 372.283109 -25.85125 
L 374.336275 -25.85125 
L 376.389441 -25.85125 
L 378.442607 -25.85125 
L 380.495773 -25.85125 
L 382.548938 -25.85125 
L 384.602104 -25.85125 
L 386.65527 -25.85125 
L 388.708436 -25.85125 
L 390.761602 -25.85125 
L 392.814768 -25.85125 
L 394.867933 -25.85125 
L 396.921099 -25.85125 
L 398.974265 -25.85125 
L 401.027431 -25.85125 
L 403.080597 -25.85125 
L 405.133763 -25.85125 
L 407.186928 -25.85125 
L 409.240094 -25.85125 
L 411.29326 -25.85125 
L 413.346426 -25.85125 
L 415.399592 -25.85125 
L 417.452758 -25.85125 
L 419.505923 -25.85125 
L 421.559089 -25.85125 
L 423.612255 -25.85125 
L 425.665421 -25.85125 
L 427.718587 -25.85125 
L 429.771753 -25.85125 
L 431.824918 -25.85125 
L 433.878084 -25.85125 
L 435.93125 -25.85125 
L 435.93125 -25.909948 
L 435.93125 -25.909948 
L 433.878084 -25.910865 
L 431.824918 -25.917371 
L 429.771753 -25.929422 
L 427.718587 -25.94456 
L 425.665421 -25.959136 
L 423.612255 -25.970601 
L 421.559089 -25.978976 
L 419.505923 -25.98593 
L 417.452758 -25.992314 
L 415.399592 -25.996795 
L 413.346426 -25.997176 
L 411.29326 -25.993018 
L 409.240094 -25.986603 
L 407.186928 -25.981068 
L 405.133763 -25.977816 
L 403.080597 -25.976109 
L 401.027431 -25.975046 
L 398.974265 -25.975467 
L 396.921099 -25.979825 
L 394.867933 -25.990453 
L 392.814768 -26.007784 
L 390.761602 -26.029535 
L 388.708436 -26.051417 
L 386.65527 -26.069588 
L 384.602104 -26.083811 
L 382.548938 -26.098868 
L 380.495773 -26.122455 
L 378.442607 -26.160198 
L 376.389441 -26.210655 
L 374.336275 -26.263932 
L 372.283109 -26.306155 
L 370.229943 -26.327931 
L 368.176778 -26.330914 
L 366.123612 -26.32718 
L 364.070446 -26.331708 
L 362.01728 -26.353667 
L 359.964114 -26.392606 
L 357.910948 -26.441228 
L 355.857783 -26.491439 
L 353.804617 -26.538928 
L 351.751451 -26.584114 
L 349.698285 -26.63028 
L 347.645119 -26.680754 
L 345.591954 -26.737189 
L 343.538788 -26.800216 
L 341.485622 -26.871072 
L 339.432456 -26.950849 
L 337.37929 -27.037271 
L 335.326124 -27.12405 
L 333.272959 -27.206102 
L 331.219793 -27.285535 
L 329.166627 -27.370876 
L 327.113461 -27.470829 
L 325.060295 -27.591058 
L 323.007129 -27.737223 
L 320.953964 -27.918396 
L 318.900798 -28.144743 
L 316.847632 -28.420305 
L 314.794466 -28.736673 
L 312.7413 -29.073421 
L 310.688134 -29.407597 
L 308.634969 -29.728588 
L 306.581803 -30.049277 
L 304.528637 -30.404612 
L 302.475471 -30.836274 
L 300.422305 -31.372406 
L 298.369139 -32.015987 
L 296.315974 -32.749326 
L 294.262808 -33.549517 
L 292.209642 -34.403132 
L 290.156476 -35.314128 
L 288.10331 -36.306771 
L 286.050144 -37.423154 
L 283.996979 -38.709962 
L 281.943813 -40.196524 
L 279.890647 -41.879577 
L 277.837481 -43.727023 
L 275.784315 -45.694203 
L 273.731149 -47.738929 
L 271.677984 -49.832274 
L 269.624818 -51.967511 
L 267.571652 -54.164123 
L 265.518486 -56.467189 
L 263.46532 -58.949169 
L 261.412155 -61.706251 
L 259.358989 -64.822749 
L 257.305823 -68.303385 
L 255.252657 -72.029282 
L 253.199491 -75.794985 
L 251.146325 -79.403614 
L 249.09316 -82.731952 
L 247.039994 -85.721064 
L 244.986828 -88.34333 
L 242.933662 -90.605793 
L 240.880496 -92.566432 
L 238.82733 -94.300154 
L 236.774165 -95.814798 
L 234.720999 -96.990458 
L 232.667833 -97.60981 
L 230.614667 -97.477637 
L 228.561501 -96.553615 
L 226.508335 -94.999671 
L 224.45517 -93.099157 
L 222.402004 -91.099788 
L 220.348838 -89.084668 
L 218.295672 -86.946896 
L 216.242506 -84.467144 
L 214.18934 -81.436804 
L 212.136175 -77.766902 
L 210.083009 -73.547879 
L 208.029843 -69.040161 
L 205.976677 -64.592843 
L 203.923511 -60.527016 
L 201.870345 -57.044956 
L 199.81718 -54.199631 
L 197.764014 -51.913386 
L 195.710848 -50.021015 
L 193.657682 -48.325543 
L 191.604516 -46.660436 
L 189.551351 -44.94201 
L 187.498185 -43.18833 
L 185.445019 -41.491812 
L 183.391853 -39.959743 
L 181.338687 -38.657729 
L 179.285521 -37.585064 
L 177.232356 -36.686278 
L 175.17919 -35.884159 
L 173.126024 -35.115929 
L 171.072858 -34.358397 
L 169.019692 -33.632768 
L 166.966526 -32.985977 
L 164.913361 -32.456257 
L 162.860195 -32.043586 
L 160.807029 -31.706756 
L 158.753863 -31.389261 
L 156.700697 -31.052287 
L 154.647531 -30.690247 
L 152.594366 -30.322564 
L 150.5412 -29.973621 
L 148.488034 -29.657173 
L 146.434868 -29.373977 
L 144.381702 -29.120013 
L 142.328536 -28.895618 
L 140.275371 -28.707105 
L 138.222205 -28.559533 
L 136.169039 -28.447341 
L 134.115873 -28.352658 
L 132.062707 -28.254514 
L 130.009541 -28.140764 
L 127.956376 -28.011261 
L 125.90321 -27.870693 
L 123.850044 -27.721109 
L 121.796878 -27.562849 
L 119.743712 -27.400817 
L 117.690546 -27.246504 
L 115.637381 -27.112372 
L 113.584215 -27.004612 
L 111.531049 -26.92121 
L 109.477883 -26.855511 
L 107.424717 -26.800682 
L 105.371552 -26.75205 
L 103.318386 -26.707396 
L 101.26522 -26.665702 
L 99.212054 -26.62491 
L 97.158888 -26.581196 
L 95.105722 -26.532254 
L 93.052557 -26.481784 
L 90.999391 -26.438635 
L 88.946225 -26.409467 
L 86.893059 -26.392453 
L 84.839893 -26.378887 
L 82.786727 -26.360332 
L 80.733562 -26.333528 
L 78.680396 -26.299354 
L 76.62723 -26.259184 
L 74.574064 -26.213873 
L 72.520898 -26.166134 
L 70.467732 -26.122092 
L 68.414567 -26.088726 
L 66.361401 -26.069283 
L 64.308235 -26.061351 
L 62.255069 -26.059135 
L 60.201903 -26.057315 
L 58.148737 -26.053196 
L 56.095572 -26.046243 
L 54.042406 -26.036579 
L 51.98924 -26.024349 
L 49.936074 -26.010264 
L 47.882908 -25.996127 
L 45.829742 -25.984527 
L 43.776577 -25.977893 
L 41.723411 -25.977285 
L 39.670245 -25.981247 
L 37.617079 -25.985799 
L 35.563913 -25.986458 
L 33.510747 -25.981016 
L 31.457582 -25.970455 
L 29.404416 -25.957426 
L 27.35125 -25.944463 
z
" style="stroke: #2ca02c"/>
    </defs>
    <g clip-path="url(#pfa5c2d3d1e)">
     <use xlink:href="#md7d3ab65c4" x="0" y="328.76" style="fill: #2ca02c; fill-opacity: 0.25; stroke: #2ca02c"/>
    </g>
   </g>
   <g id="PolyCollection_4">
    <defs>
     <path id="me2172715dc" d="M 27.35125 -28.104593 
L 27.35125 -25.85125 
L 29.404416 -25.85125 
L 31.457582 -25.85125 
L 33.510747 -25.85125 
L 35.563913 -25.85125 
L 37.617079 -25.85125 
L 39.670245 -25.85125 
L 41.723411 -25.85125 
L 43.776577 -25.85125 
L 45.829742 -25.85125 
L 47.882908 -25.85125 
L 49.936074 -25.85125 
L 51.98924 -25.85125 
L 54.042406 -25.85125 
L 56.095572 -25.85125 
L 58.148737 -25.85125 
L 60.201903 -25.85125 
L 62.255069 -25.85125 
L 64.308235 -25.85125 
L 66.361401 -25.85125 
L 68.414567 -25.85125 
L 70.467732 -25.85125 
L 72.520898 -25.85125 
L 74.574064 -25.85125 
L 76.62723 -25.85125 
L 78.680396 -25.85125 
L 80.733562 -25.85125 
L 82.786727 -25.85125 
L 84.839893 -25.85125 
L 86.893059 -25.85125 
L 88.946225 -25.85125 
L 90.999391 -25.85125 
L 93.052557 -25.85125 
L 95.105722 -25.85125 
L 97.158888 -25.85125 
L 99.212054 -25.85125 
L 101.26522 -25.85125 
L 103.318386 -25.85125 
L 105.371552 -25.85125 
L 107.424717 -25.85125 
L 109.477883 -25.85125 
L 111.531049 -25.85125 
L 113.584215 -25.85125 
L 115.637381 -25.85125 
L 117.690546 -25.85125 
L 119.743712 -25.85125 
L 121.796878 -25.85125 
L 123.850044 -25.85125 
L 125.90321 -25.85125 
L 127.956376 -25.85125 
L 130.009541 -25.85125 
L 132.062707 -25.85125 
L 134.115873 -25.85125 
L 136.169039 -25.85125 
L 138.222205 -25.85125 
L 140.275371 -25.85125 
L 142.328536 -25.85125 
L 144.381702 -25.85125 
L 146.434868 -25.85125 
L 148.488034 -25.85125 
L 150.5412 -25.85125 
L 152.594366 -25.85125 
L 154.647531 -25.85125 
L 156.700697 -25.85125 
L 158.753863 -25.85125 
L 160.807029 -25.85125 
L 162.860195 -25.85125 
L 164.913361 -25.85125 
L 166.966526 -25.85125 
L 169.019692 -25.85125 
L 171.072858 -25.85125 
L 173.126024 -25.85125 
L 175.17919 -25.85125 
L 177.232356 -25.85125 
L 179.285521 -25.85125 
L 181.338687 -25.85125 
L 183.391853 -25.85125 
L 185.445019 -25.85125 
L 187.498185 -25.85125 
L 189.551351 -25.85125 
L 191.604516 -25.85125 
L 193.657682 -25.85125 
L 195.710848 -25.85125 
L 197.764014 -25.85125 
L 199.81718 -25.85125 
L 201.870345 -25.85125 
L 203.923511 -25.85125 
L 205.976677 -25.85125 
L 208.029843 -25.85125 
L 210.083009 -25.85125 
L 212.136175 -25.85125 
L 214.18934 -25.85125 
L 216.242506 -25.85125 
L 218.295672 -25.85125 
L 220.348838 -25.85125 
L 222.402004 -25.85125 
L 224.45517 -25.85125 
L 226.508335 -25.85125 
L 228.561501 -25.85125 
L 230.614667 -25.85125 
L 232.667833 -25.85125 
L 234.720999 -25.85125 
L 236.774165 -25.85125 
L 238.82733 -25.85125 
L 240.880496 -25.85125 
L 242.933662 -25.85125 
L 244.986828 -25.85125 
L 247.039994 -25.85125 
L 249.09316 -25.85125 
L 251.146325 -25.85125 
L 253.199491 -25.85125 
L 255.252657 -25.85125 
L 257.305823 -25.85125 
L 259.358989 -25.85125 
L 261.412155 -25.85125 
L 263.46532 -25.85125 
L 265.518486 -25.85125 
L 267.571652 -25.85125 
L 269.624818 -25.85125 
L 271.677984 -25.85125 
L 273.731149 -25.85125 
L 275.784315 -25.85125 
L 277.837481 -25.85125 
L 279.890647 -25.85125 
L 281.943813 -25.85125 
L 283.996979 -25.85125 
L 286.050144 -25.85125 
L 288.10331 -25.85125 
L 290.156476 -25.85125 
L 292.209642 -25.85125 
L 294.262808 -25.85125 
L 296.315974 -25.85125 
L 298.369139 -25.85125 
L 300.422305 -25.85125 
L 302.475471 -25.85125 
L 304.528637 -25.85125 
L 306.581803 -25.85125 
L 308.634969 -25.85125 
L 310.688134 -25.85125 
L 312.7413 -25.85125 
L 314.794466 -25.85125 
L 316.847632 -25.85125 
L 318.900798 -25.85125 
L 320.953964 -25.85125 
L 323.007129 -25.85125 
L 325.060295 -25.85125 
L 327.113461 -25.85125 
L 329.166627 -25.85125 
L 331.219793 -25.85125 
L 333.272959 -25.85125 
L 335.326124 -25.85125 
L 337.37929 -25.85125 
L 339.432456 -25.85125 
L 341.485622 -25.85125 
L 343.538788 -25.85125 
L 345.591954 -25.85125 
L 347.645119 -25.85125 
L 349.698285 -25.85125 
L 351.751451 -25.85125 
L 353.804617 -25.85125 
L 355.857783 -25.85125 
L 357.910948 -25.85125 
L 359.964114 -25.85125 
L 362.01728 -25.85125 
L 364.070446 -25.85125 
L 366.123612 -25.85125 
L 368.176778 -25.85125 
L 370.229943 -25.85125 
L 372.283109 -25.85125 
L 374.336275 -25.85125 
L 376.389441 -25.85125 
L 378.442607 -25.85125 
L 380.495773 -25.85125 
L 382.548938 -25.85125 
L 384.602104 -25.85125 
L 386.65527 -25.85125 
L 388.708436 -25.85125 
L 390.761602 -25.85125 
L 392.814768 -25.85125 
L 394.867933 -25.85125 
L 396.921099 -25.85125 
L 398.974265 -25.85125 
L 401.027431 -25.85125 
L 403.080597 -25.85125 
L 405.133763 -25.85125 
L 407.186928 -25.85125 
L 409.240094 -25.85125 
L 411.29326 -25.85125 
L 413.346426 -25.85125 
L 415.399592 -25.85125 
L 417.452758 -25.85125 
L 419.505923 -25.85125 
L 421.559089 -25.85125 
L 423.612255 -25.85125 
L 425.665421 -25.85125 
L 427.718587 -25.85125 
L 429.771753 -25.85125 
L 431.824918 -25.85125 
L 433.878084 -25.85125 
L 435.93125 -25.85125 
L 435.93125 -32.172597 
L 435.93125 -32.172597 
L 433.878084 -32.295837 
L 431.824918 -32.4204 
L 429.771753 -32.546252 
L 427.718587 -32.67336 
L 425.665421 -32.801687 
L 423.612255 -32.931193 
L 421.559089 -33.061839 
L 419.505923 -33.193581 
L 417.452758 -33.326374 
L 415.399592 -33.460173 
L 413.346426 -33.594928 
L 411.29326 -33.730587 
L 409.240094 -33.867099 
L 407.186928 -34.004408 
L 405.133763 -34.142458 
L 403.080597 -34.281189 
L 401.027431 -34.420541 
L 398.974265 -34.560451 
L 396.921099 -34.700854 
L 394.867933 -34.841684 
L 392.814768 -34.982872 
L 390.761602 -35.124348 
L 388.708436 -35.26604 
L 386.65527 -35.407874 
L 384.602104 -35.549774 
L 382.548938 -35.691665 
L 380.495773 -35.833466 
L 378.442607 -35.975099 
L 376.389441 -36.116481 
L 374.336275 -36.25753 
L 372.283109 -36.398161 
L 370.229943 -36.538288 
L 368.176778 -36.677826 
L 366.123612 -36.816687 
L 364.070446 -36.954781 
L 362.01728 -37.092019 
L 359.964114 -37.22831 
L 357.910948 -37.363564 
L 355.857783 -37.497689 
L 353.804617 -37.630592 
L 351.751451 -37.76218 
L 349.698285 -37.892361 
L 347.645119 -38.02104 
L 345.591954 -38.148125 
L 343.538788 -38.273522 
L 341.485622 -38.397137 
L 339.432456 -38.518877 
L 337.37929 -38.63865 
L 335.326124 -38.756363 
L 333.272959 -38.871924 
L 331.219793 -38.985242 
L 329.166627 -39.096226 
L 327.113461 -39.204786 
L 325.060295 -39.310835 
L 323.007129 -39.414285 
L 320.953964 -39.515049 
L 318.900798 -39.613043 
L 316.847632 -39.708184 
L 314.794466 -39.80039 
L 312.7413 -39.889581 
L 310.688134 -39.975678 
L 308.634969 -40.058606 
L 306.581803 -40.138291 
L 304.528637 -40.21466 
L 302.475471 -40.287645 
L 300.422305 -40.357176 
L 298.369139 -40.423191 
L 296.315974 -40.485625 
L 294.262808 -40.544421 
L 292.209642 -40.59952 
L 290.156476 -40.65087 
L 288.10331 -40.698418 
L 286.050144 -40.742117 
L 283.996979 -40.781922 
L 281.943813 -40.81779 
L 279.890647 -40.849684 
L 277.837481 -40.877568 
L 275.784315 -40.901411 
L 273.731149 -40.921182 
L 271.677984 -40.936859 
L 269.624818 -40.948418 
L 267.571652 -40.955842 
L 265.518486 -40.959117 
L 263.46532 -40.958231 
L 261.412155 -40.953178 
L 259.358989 -40.943953 
L 257.305823 -40.930557 
L 255.252657 -40.912994 
L 253.199491 -40.891271 
L 251.146325 -40.865399 
L 249.09316 -40.835393 
L 247.039994 -40.801271 
L 244.986828 -40.763056 
L 242.933662 -40.720772 
L 240.880496 -40.674449 
L 238.82733 -40.62412 
L 236.774165 -40.569821 
L 234.720999 -40.511592 
L 232.667833 -40.449475 
L 230.614667 -40.383517 
L 228.561501 -40.313767 
L 226.508335 -40.240278 
L 224.45517 -40.163107 
L 222.402004 -40.082312 
L 220.348838 -39.997954 
L 218.295672 -39.9101 
L 216.242506 -39.818816 
L 214.18934 -39.724173 
L 212.136175 -39.626244 
L 210.083009 -39.525103 
L 208.029843 -39.42083 
L 205.976677 -39.313504 
L 203.923511 -39.203207 
L 201.870345 -39.090024 
L 199.81718 -38.974041 
L 197.764014 -38.855347 
L 195.710848 -38.73403 
L 193.657682 -38.610184 
L 191.604516 -38.4839 
L 189.551351 -38.355273 
L 187.498185 -38.224399 
L 185.445019 -38.091374 
L 183.391853 -37.956297 
L 181.338687 -37.819265 
L 179.285521 -37.680377 
L 177.232356 -37.539735 
L 175.17919 -37.397437 
L 173.126024 -37.253585 
L 171.072858 -37.10828 
L 169.019692 -36.961623 
L 166.966526 -36.813714 
L 164.913361 -36.664655 
L 162.860195 -36.514546 
L 160.807029 -36.363488 
L 158.753863 -36.21158 
L 156.700697 -36.058922 
L 154.647531 -35.905611 
L 152.594366 -35.751746 
L 150.5412 -35.597424 
L 148.488034 -35.442739 
L 146.434868 -35.287788 
L 144.381702 -35.132662 
L 142.328536 -34.977454 
L 140.275371 -34.822255 
L 138.222205 -34.667154 
L 136.169039 -34.512239 
L 134.115873 -34.357595 
L 132.062707 -34.203306 
L 130.009541 -34.049456 
L 127.956376 -33.896125 
L 125.90321 -33.743391 
L 123.850044 -33.591331 
L 121.796878 -33.44002 
L 119.743712 -33.289531 
L 117.690546 -33.139933 
L 115.637381 -32.991295 
L 113.584215 -32.843684 
L 111.531049 -32.697163 
L 109.477883 -32.551793 
L 107.424717 -32.407634 
L 105.371552 -32.264742 
L 103.318386 -32.123173 
L 101.26522 -31.982979 
L 99.212054 -31.844209 
L 97.158888 -31.706911 
L 95.105722 -31.57113 
L 93.052557 -31.436909 
L 90.999391 -31.304288 
L 88.946225 -31.173305 
L 86.893059 -31.043997 
L 84.839893 -30.916395 
L 82.786727 -30.790532 
L 80.733562 -30.666436 
L 78.680396 -30.544134 
L 76.62723 -30.423649 
L 74.574064 -30.305004 
L 72.520898 -30.188218 
L 70.467732 -30.07331 
L 68.414567 -29.960295 
L 66.361401 -29.849186 
L 64.308235 -29.739994 
L 62.255069 -29.63273 
L 60.201903 -29.527401 
L 58.148737 -29.424012 
L 56.095572 -29.322567 
L 54.042406 -29.223068 
L 51.98924 -29.125515 
L 49.936074 -29.029907 
L 47.882908 -28.93624 
L 45.829742 -28.84451 
L 43.776577 -28.754711 
L 41.723411 -28.666834 
L 39.670245 -28.580871 
L 37.617079 -28.496811 
L 35.563913 -28.414642 
L 33.510747 -28.33435 
L 31.457582 -28.255922 
L 29.404416 -28.179342 
L 27.35125 -28.104593 
z
" style="stroke: #d62728"/>
    </defs>
    <g clip-path="url(#pfa5c2d3d1e)">
     <use xlink:href="#me2172715dc" x="0" y="328.76" style="fill: #d62728; fill-opacity: 0.25; stroke: #d62728"/>
    </g>
   </g>
   <g id="matplotlib.axis_1">
    <g id="xtick_1">
     <g id="line2d_1">
      <defs>
       <path id="m66f8c109fb" d="M 0 0 
L 0 3.5 
" style="stroke: #000000; stroke-width: 0.8"/>
      </defs>
      <g>
       <use xlink:href="#m66f8c109fb" x="27.35125" y="302.90875" style="stroke: #000000; stroke-width: 0.8"/>
      </g>
     </g>
     <g id="text_1">
      <!-- -1.00 -->
      <g transform="translate(18.235 315.6475) scale(0.08 -0.08)">
       <defs>
        <path id="Helvetica-2d" d="M 266 1494 
L 266 2072 
L 1834 2072 
L 1834 1494 
L 266 1494 
z
" transform="scale(0.015625)"/>
        <path id="Helvetica-31" d="M 613 3169 
L 613 3600 
Q 1222 3659 1462 3798 
Q 1703 3938 1822 4456 
L 2266 4456 
L 2266 0 
L 1666 0 
L 1666 3169 
L 613 3169 
z
" transform="scale(0.015625)"/>
        <path id="Helvetica-2e" d="M 547 0 
L 547 681 
L 1200 681 
L 1200 0 
L 547 0 
z
" transform="scale(0.015625)"/>
        <path id="Helvetica-30" d="M 200 2147 
Q 200 2909 397 3456 
Q 766 4475 1731 4475 
Q 2600 4475 2988 3759 
Q 3288 3206 3288 2244 
Q 3288 1331 3016 734 
Q 2622 -122 1728 -122 
Q 922 -122 528 578 
Q 200 1163 200 2147 
z
M 809 2125 
Q 809 1441 956 1025 
Q 1181 391 1725 391 
Q 2163 391 2422 778 
Q 2681 1166 2681 2222 
Q 2681 2984 2493 3476 
Q 2306 3969 1766 3969 
Q 1269 3969 1039 3501 
Q 809 3034 809 2125 
z
" transform="scale(0.015625)"/>
       </defs>
       <use xlink:href="#Helvetica-2d"/>
       <use xlink:href="#Helvetica-31" x="33.300781"/>
       <use xlink:href="#Helvetica-2e" x="88.916016"/>
       <use xlink:href="#Helvetica-30" x="116.699219"/>
       <use xlink:href="#Helvetica-30" x="172.314453"/>
      </g>
     </g>
    </g>
    <g id="xtick_2">
     <g id="line2d_2">
      <g>
       <use xlink:href="#m66f8c109fb" x="78.42375" y="302.90875" style="stroke: #000000; stroke-width: 0.8"/>
      </g>
     </g>
     <g id="text_2">
      <!-- -0.75 -->
      <g transform="translate(69.3075 315.6475) scale(0.08 -0.08)">
       <defs>
        <path id="Helvetica-37" d="M 234 3834 
L 234 4400 
L 3347 4400 
L 3347 3909 
Q 3131 3700 2773 3181 
Q 2416 2663 2141 2063 
Q 1869 1478 1728 997 
Q 1638 688 1494 0 
L 872 0 
Q 1084 1281 1809 2550 
Q 2238 3294 2709 3834 
L 234 3834 
z
" transform="scale(0.015625)"/>
        <path id="Helvetica-35" d="M 206 1141 
L 791 1141 
Q 847 659 1238 475 
Q 1438 381 1700 381 
Q 2200 381 2440 700 
Q 2681 1019 2681 1406 
Q 2681 1875 2395 2131 
Q 2109 2388 1709 2388 
Q 1419 2388 1211 2275 
Q 1003 2163 856 1963 
L 369 1991 
L 709 4400 
L 3034 4400 
L 3034 3856 
L 1131 3856 
L 941 2613 
Q 1097 2731 1238 2791 
Q 1488 2894 1816 2894 
Q 2431 2894 2859 2497 
Q 3288 2100 3288 1491 
Q 3288 856 2895 371 
Q 2503 -113 1644 -113 
Q 1097 -113 676 195 
Q 256 503 206 1141 
z
" transform="scale(0.015625)"/>
       </defs>
       <use xlink:href="#Helvetica-2d"/>
       <use xlink:href="#Helvetica-30" x="33.300781"/>
       <use xlink:href="#Helvetica-2e" x="88.916016"/>
       <use xlink:href="#Helvetica-37" x="116.699219"/>
       <use xlink:href="#Helvetica-35" x="172.314453"/>
      </g>
     </g>
    </g>
    <g id="xtick_3">
     <g id="line2d_3">
      <g>
       <use xlink:href="#m66f8c109fb" x="129.49625" y="302.90875" style="stroke: #000000; stroke-width: 0.8"/>
      </g>
     </g>
     <g id="text_3">
      <!-- -0.50 -->
      <g transform="translate(120.38 315.6475) scale(0.08 -0.08)">
       <use xlink:href="#Helvetica-2d"/>
       <use xlink:href="#Helvetica-30" x="33.300781"/>
       <use xlink:href="#Helvetica-2e" x="88.916016"/>
       <use xlink:href="#Helvetica-35" x="116.699219"/>
       <use xlink:href="#Helvetica-30" x="172.314453"/>
      </g>
     </g>
    </g>
    <g id="xtick_4">
     <g id="line2d_4">
      <g>
       <use xlink:href="#m66f8c109fb" x="180.56875" y="302.90875" style="stroke: #000000; stroke-width: 0.8"/>
      </g>
     </g>
     <g id="text_4">
      <!-- -0.25 -->
      <g transform="translate(171.4525 315.6475) scale(0.08 -0.08)">
       <defs>
        <path id="Helvetica-32" d="M 200 0 
Q 231 578 439 1006 
Q 647 1434 1250 1784 
L 1850 2131 
Q 2253 2366 2416 2531 
Q 2672 2791 2672 3125 
Q 2672 3516 2437 3745 
Q 2203 3975 1813 3975 
Q 1234 3975 1013 3538 
Q 894 3303 881 2888 
L 309 2888 
Q 319 3472 525 3841 
Q 891 4491 1816 4491 
Q 2584 4491 2939 4075 
Q 3294 3659 3294 3150 
Q 3294 2613 2916 2231 
Q 2697 2009 2131 1694 
L 1703 1456 
Q 1397 1288 1222 1134 
Q 909 863 828 531 
L 3272 531 
L 3272 0 
L 200 0 
z
" transform="scale(0.015625)"/>
       </defs>
       <use xlink:href="#Helvetica-2d"/>
       <use xlink:href="#Helvetica-30" x="33.300781"/>
       <use xlink:href="#Helvetica-2e" x="88.916016"/>
       <use xlink:href="#Helvetica-32" x="116.699219"/>
       <use xlink:href="#Helvetica-35" x="172.314453"/>
      </g>
     </g>
    </g>
    <g id="xtick_5">
     <g id="line2d_5">
      <g>
       <use xlink:href="#m66f8c109fb" x="231.64125" y="302.90875" style="stroke: #000000; stroke-width: 0.8"/>
      </g>
     </g>
     <g id="text_5">
      <!-- 0.00 -->
      <g transform="translate(223.856875 315.6475) scale(0.08 -0.08)">
       <use xlink:href="#Helvetica-30"/>
       <use xlink:href="#Helvetica-2e" x="55.615234"/>
       <use xlink:href="#Helvetica-30" x="83.398438"/>
       <use xlink:href="#Helvetica-30" x="139.013672"/>
      </g>
     </g>
    </g>
    <g id="xtick_6">
     <g id="line2d_6">
      <g>
       <use xlink:href="#m66f8c109fb" x="282.71375" y="302.90875" style="stroke: #000000; stroke-width: 0.8"/>
      </g>
     </g>
     <g id="text_6">
      <!-- 0.25 -->
      <g transform="translate(274.929375 315.6475) scale(0.08 -0.08)">
       <use xlink:href="#Helvetica-30"/>
       <use xlink:href="#Helvetica-2e" x="55.615234"/>
       <use xlink:href="#Helvetica-32" x="83.398438"/>
       <use xlink:href="#Helvetica-35" x="139.013672"/>
      </g>
     </g>
    </g>
    <g id="xtick_7">
     <g id="line2d_7">
      <g>
       <use xlink:href="#m66f8c109fb" x="333.78625" y="302.90875" style="stroke: #000000; stroke-width: 0.8"/>
      </g>
     </g>
     <g id="text_7">
      <!-- 0.50 -->
      <g transform="translate(326.001875 315.6475) scale(0.08 -0.08)">
       <use xlink:href="#Helvetica-30"/>
       <use xlink:href="#Helvetica-2e" x="55.615234"/>
       <use xlink:href="#Helvetica-35" x="83.398438"/>
       <use xlink:href="#Helvetica-30" x="139.013672"/>
      </g>
     </g>
    </g>
    <g id="xtick_8">
     <g id="line2d_8">
      <g>
       <use xlink:href="#m66f8c109fb" x="384.85875" y="302.90875" style="stroke: #000000; stroke-width: 0.8"/>
      </g>
     </g>
     <g id="text_8">
      <!-- 0.75 -->
      <g transform="translate(377.074375 315.6475) scale(0.08 -0.08)">
       <use xlink:href="#Helvetica-30"/>
       <use xlink:href="#Helvetica-2e" x="55.615234"/>
       <use xlink:href="#Helvetica-37" x="83.398438"/>
       <use xlink:href="#Helvetica-35" x="139.013672"/>
      </g>
     </g>
    </g>
    <g id="xtick_9">
     <g id="line2d_9">
      <g>
       <use xlink:href="#m66f8c109fb" x="435.93125" y="302.90875" style="stroke: #000000; stroke-width: 0.8"/>
      </g>
     </g>
     <g id="text_9">
      <!-- 1.00 -->
      <g transform="translate(428.146875 315.6475) scale(0.08 -0.08)">
       <use xlink:href="#Helvetica-31"/>
       <use xlink:href="#Helvetica-2e" x="55.615234"/>
       <use xlink:href="#Helvetica-30" x="83.398438"/>
       <use xlink:href="#Helvetica-30" x="139.013672"/>
      </g>
     </g>
    </g>
    <g id="text_10">
     <!-- Error [dpt] -->
     <g transform="translate(213.859375 327.0925) scale(0.08 -0.08)">
      <defs>
       <path id="Helvetica-45" d="M 547 0 
L 547 4591 
L 3894 4591 
L 3894 4028 
L 1153 4028 
L 1153 2634 
L 3688 2634 
L 3688 2103 
L 1153 2103 
L 1153 547 
L 3941 547 
L 3941 0 
L 547 0 
z
M 2244 4591 
L 2244 4591 
z
" transform="scale(0.015625)"/>
       <path id="Helvetica-72" d="M 428 0 
L 428 3347 
L 963 3347 
L 963 2769 
Q 1028 2938 1284 3180 
Q 1541 3422 1875 3422 
Q 1891 3422 1928 3419 
Q 1966 3416 2056 3406 
L 2056 2813 
Q 2006 2822 1964 2825 
Q 1922 2828 1872 2828 
Q 1447 2828 1219 2554 
Q 991 2281 991 1925 
L 991 0 
L 428 0 
z
" transform="scale(0.015625)"/>
       <path id="Helvetica-6f" d="M 184 1600 
Q 184 2444 612 2944 
Q 1041 3444 1763 3444 
Q 2409 3444 2856 3012 
Q 3303 2581 3303 1744 
Q 3303 934 2909 406 
Q 2516 -122 1688 -122 
Q 997 -122 590 345 
Q 184 813 184 1600 
z
M 763 1609 
Q 763 1075 997 719 
Q 1231 363 1741 363 
Q 2300 363 2508 786 
Q 2716 1209 2716 1728 
Q 2716 2197 2566 2491 
Q 2328 2953 1747 2953 
Q 1231 2953 997 2559 
Q 763 2166 763 1609 
z
M 1744 3428 
L 1744 3428 
z
" transform="scale(0.015625)"/>
       <path id="Helvetica-20" transform="scale(0.015625)"/>
       <path id="Helvetica-5b" d="M 400 -1259 
L 400 4622 
L 1600 4622 
L 1600 4163 
L 931 4163 
L 931 -800 
L 1600 -800 
L 1600 -1259 
L 400 -1259 
z
" transform="scale(0.015625)"/>
       <path id="Helvetica-64" d="M 175 1603 
Q 175 2334 548 2870 
Q 922 3406 1616 3406 
Q 2000 3406 2259 3244 
Q 2409 3150 2600 2916 
L 2600 4606 
L 3141 4606 
L 3141 0 
L 2634 0 
L 2634 466 
Q 2438 156 2169 18 
Q 1900 -119 1553 -119 
Q 994 -119 584 351 
Q 175 822 175 1603 
z
M 769 1634 
Q 769 1097 997 734 
Q 1225 372 1728 372 
Q 2119 372 2370 708 
Q 2622 1044 2622 1672 
Q 2622 2306 2362 2611 
Q 2103 2916 1722 2916 
Q 1297 2916 1033 2591 
Q 769 2266 769 1634 
z
" transform="scale(0.015625)"/>
       <path id="Helvetica-70" d="M 369 -1334 
L 369 3331 
L 916 3331 
L 916 2888 
Q 1084 3116 1284 3241 
Q 1569 3428 1953 3428 
Q 2522 3428 2919 2992 
Q 3316 2556 3316 1747 
Q 3316 653 2744 184 
Q 2381 -113 1900 -113 
Q 1522 -113 1266 53 
Q 1116 147 931 375 
L 931 -1334 
L 369 -1334 
z
M 909 1556 
Q 909 1169 1025 897 
Q 1244 378 1825 378 
Q 2219 378 2480 708 
Q 2741 1038 2741 1694 
Q 2741 2094 2625 2381 
Q 2406 2934 1825 2934 
Q 1241 2934 1025 2350 
Q 909 2038 909 1556 
z
" transform="scale(0.015625)"/>
       <path id="Helvetica-74" d="M 72 2888 
L 72 3347 
L 525 3347 
L 525 4281 
L 1094 4281 
L 1094 3347 
L 1628 3347 
L 1628 2888 
L 1094 2888 
L 1094 703 
Q 1094 528 1213 469 
Q 1278 434 1431 434 
Q 1472 434 1519 436 
Q 1566 438 1628 444 
L 1628 0 
Q 1531 -28 1426 -40 
Q 1322 -53 1200 -53 
Q 806 -53 665 148 
Q 525 350 525 672 
L 525 2888 
L 72 2888 
z
" transform="scale(0.015625)"/>
       <path id="Helvetica-5d" d="M 147 -800 
L 813 -800 
L 813 4163 
L 147 4163 
L 147 4622 
L 1347 4622 
L 1347 -1259 
L 147 -1259 
L 147 -800 
z
" transform="scale(0.015625)"/>
      </defs>
      <use xlink:href="#Helvetica-45"/>
      <use xlink:href="#Helvetica-72" x="66.699219"/>
      <use xlink:href="#Helvetica-72" x="100"/>
      <use xlink:href="#Helvetica-6f" x="133.300781"/>
      <use xlink:href="#Helvetica-72" x="188.916016"/>
      <use xlink:href="#Helvetica-20" x="222.216797"/>
      <use xlink:href="#Helvetica-5b" x="250"/>
      <use xlink:href="#Helvetica-64" x="277.783203"/>
      <use xlink:href="#Helvetica-70" x="333.398438"/>
      <use xlink:href="#Helvetica-74" x="389.013672"/>
      <use xlink:href="#Helvetica-5d" x="416.796875"/>
     </g>
    </g>
   </g>
   <g id="matplotlib.axis_2">
    <g id="ytick_1">
     <g id="line2d_10">
      <defs>
       <path id="m97003436b4" d="M 0 0 
L -3.5 0 
" style="stroke: #000000; stroke-width: 0.8"/>
      </defs>
      <g>
       <use xlink:href="#m97003436b4" x="27.35125" y="302.90875" style="stroke: #000000; stroke-width: 0.8"/>
      </g>
     </g>
     <g id="text_11">
      <!-- 0 -->
      <g transform="translate(15.9025 305.778125) scale(0.08 -0.08)">
       <use xlink:href="#Helvetica-30"/>
      </g>
     </g>
    </g>
    <g id="ytick_2">
     <g id="line2d_11">
      <g>
       <use xlink:href="#m97003436b4" x="27.35125" y="253.927304" style="stroke: #000000; stroke-width: 0.8"/>
      </g>
     </g>
     <g id="text_12">
      <!-- 2 -->
      <g transform="translate(15.9025 256.796679) scale(0.08 -0.08)">
       <use xlink:href="#Helvetica-32"/>
      </g>
     </g>
    </g>
    <g id="ytick_3">
     <g id="line2d_12">
      <g>
       <use xlink:href="#m97003436b4" x="27.35125" y="204.945858" style="stroke: #000000; stroke-width: 0.8"/>
      </g>
     </g>
     <g id="text_13">
      <!-- 4 -->
      <g transform="translate(15.9025 207.815233) scale(0.08 -0.08)">
       <defs>
        <path id="Helvetica-34" d="M 163 1094 
L 163 1644 
L 2213 4488 
L 2688 4488 
L 2688 1584 
L 3347 1584 
L 3347 1094 
L 2688 1094 
L 2688 0 
L 2125 0 
L 2125 1094 
L 163 1094 
z
M 681 1584 
L 2116 1584 
L 2116 3613 
L 681 1584 
z
" transform="scale(0.015625)"/>
       </defs>
       <use xlink:href="#Helvetica-34"/>
      </g>
     </g>
    </g>
    <g id="ytick_4">
     <g id="line2d_13">
      <g>
       <use xlink:href="#m97003436b4" x="27.35125" y="155.964412" style="stroke: #000000; stroke-width: 0.8"/>
      </g>
     </g>
     <g id="text_14">
      <!-- 6 -->
      <g transform="translate(15.9025 158.833787) scale(0.08 -0.08)">
       <defs>
        <path id="Helvetica-36" d="M 241 1966 
Q 241 2800 444 3381 
Q 834 4494 1872 4494 
Q 2622 4494 2917 4105 
Q 3213 3716 3213 3303 
L 2656 3303 
Q 2606 3569 2497 3719 
Q 2294 4000 1881 4000 
Q 1409 4000 1131 3564 
Q 853 3128 822 2316 
Q 1016 2600 1309 2741 
Q 1578 2866 1909 2866 
Q 2472 2866 2890 2506 
Q 3309 2147 3309 1434 
Q 3309 825 2912 354 
Q 2516 -116 1781 -116 
Q 1153 -116 697 361 
Q 241 838 241 1966 
z
M 894 1388 
Q 894 963 1142 673 
Q 1391 384 1831 384 
Q 2275 384 2495 682 
Q 2716 981 2716 1388 
Q 2716 1731 2519 2042 
Q 2322 2353 1803 2353 
Q 1441 2353 1167 2112 
Q 894 1872 894 1388 
z
" transform="scale(0.015625)"/>
       </defs>
       <use xlink:href="#Helvetica-36"/>
      </g>
     </g>
    </g>
    <g id="ytick_5">
     <g id="line2d_14">
      <g>
       <use xlink:href="#m97003436b4" x="27.35125" y="106.982967" style="stroke: #000000; stroke-width: 0.8"/>
      </g>
     </g>
     <g id="text_15">
      <!-- 8 -->
      <g transform="translate(15.9025 109.852342) scale(0.08 -0.08)">
       <defs>
        <path id="Helvetica-38" d="M 206 1256 
Q 206 1653 400 1942 
Q 594 2231 975 2384 
Q 741 2484 609 2619 
Q 363 2869 363 3269 
Q 363 3769 725 4128 
Q 1088 4488 1753 4488 
Q 2397 4488 2762 4148 
Q 3128 3809 3128 3356 
Q 3128 2938 2916 2678 
Q 2797 2531 2547 2391 
Q 2825 2263 2984 2097 
Q 3281 1784 3281 1284 
Q 3281 694 2884 283 
Q 2488 -128 1763 -128 
Q 1109 -128 657 226 
Q 206 581 206 1256 
z
M 822 1244 
Q 822 894 1055 639 
Q 1288 384 1775 384 
Q 2166 384 2423 595 
Q 2681 806 2681 1225 
Q 2681 1659 2415 1884 
Q 2150 2109 1734 2109 
Q 1331 2109 1076 1879 
Q 822 1650 822 1244 
z
M 953 3272 
Q 953 2956 1187 2778 
Q 1422 2600 1741 2600 
Q 2113 2600 2322 2808 
Q 2531 3016 2531 3303 
Q 2531 3553 2331 3762 
Q 2131 3972 1722 3972 
Q 1316 3972 1134 3762 
Q 953 3553 953 3272 
z
" transform="scale(0.015625)"/>
       </defs>
       <use xlink:href="#Helvetica-38"/>
      </g>
     </g>
    </g>
    <g id="ytick_6">
     <g id="line2d_15">
      <g>
       <use xlink:href="#m97003436b4" x="27.35125" y="58.001521" style="stroke: #000000; stroke-width: 0.8"/>
      </g>
     </g>
     <g id="text_16">
      <!-- 10 -->
      <g transform="translate(11.45375 60.870896) scale(0.08 -0.08)">
       <use xlink:href="#Helvetica-31"/>
       <use xlink:href="#Helvetica-30" x="55.615234"/>
      </g>
     </g>
    </g>
    <g id="ytick_7">
     <g id="line2d_16">
      <g>
       <use xlink:href="#m97003436b4" x="27.35125" y="9.020075" style="stroke: #000000; stroke-width: 0.8"/>
      </g>
     </g>
     <g id="text_17">
      <!-- 12 -->
      <g transform="translate(11.45375 11.88945) scale(0.08 -0.08)">
       <use xlink:href="#Helvetica-31"/>
       <use xlink:href="#Helvetica-32" x="55.615234"/>
      </g>
     </g>
    </g>
    <g id="text_18">
     <!-- Density -->
     <g transform="translate(5.73875 164.791875) rotate(-90) scale(0.08 -0.08)">
      <defs>
       <path id="Helvetica-44" d="M 516 0 
L 516 4591 
L 2375 4591 
Q 3322 4591 3844 3919 
Q 4309 3313 4309 2366 
Q 4309 1634 4034 1044 
Q 3550 0 2369 0 
L 516 0 
z
M 1141 531 
L 2250 531 
Q 2566 531 2769 597 
Q 3131 719 3363 1066 
Q 3547 1344 3628 1778 
Q 3675 2038 3675 2259 
Q 3675 3113 3336 3584 
Q 2997 4056 2244 4056 
L 1141 4056 
L 1141 531 
z
" transform="scale(0.015625)"/>
       <path id="Helvetica-65" d="M 225 1609 
Q 225 2416 662 2919 
Q 1100 3422 1806 3422 
Q 2163 3422 2497 3255 
Q 2831 3088 3006 2822 
Q 3175 2569 3231 2231 
Q 3281 2000 3281 1494 
L 828 1494 
Q 844 984 1069 676 
Q 1294 369 1766 369 
Q 2206 369 2469 659 
Q 2619 828 2681 1050 
L 3234 1050 
Q 3213 866 3089 639 
Q 2966 413 2813 269 
Q 2556 19 2178 -69 
Q 1975 -119 1719 -119 
Q 1094 -119 659 336 
Q 225 791 225 1609 
z
M 844 1941 
L 2703 1941 
Q 2669 2306 2544 2525 
Q 2313 2931 1772 2931 
Q 1384 2931 1121 2651 
Q 859 2372 844 1941 
z
M 1753 3428 
L 1753 3428 
z
" transform="scale(0.015625)"/>
       <path id="Helvetica-6e" d="M 413 0 
L 413 3347 
L 947 3347 
L 947 2872 
Q 1184 3166 1450 3294 
Q 1716 3422 2041 3422 
Q 2753 3422 3003 2925 
Q 3141 2653 3141 2147 
L 3141 0 
L 2569 0 
L 2569 2109 
Q 2569 2416 2478 2603 
Q 2328 2916 1934 2916 
Q 1734 2916 1606 2875 
Q 1375 2806 1200 2600 
Q 1059 2434 1017 2257 
Q 975 2081 975 1753 
L 975 0 
L 413 0 
z
M 1734 3428 
L 1734 3428 
z
" transform="scale(0.015625)"/>
       <path id="Helvetica-73" d="M 206 1050 
L 747 1050 
Q 772 769 888 619 
Q 1100 347 1625 347 
Q 1938 347 2175 483 
Q 2413 619 2413 903 
Q 2413 1119 2222 1231 
Q 2100 1300 1741 1391 
L 1294 1503 
Q 866 1609 663 1741 
Q 300 1969 300 2372 
Q 300 2847 642 3140 
Q 984 3434 1563 3434 
Q 2319 3434 2653 2991 
Q 2856 2719 2856 2403 
Q 2856 2394 2856 2384 
L 2325 2384 
Q 2309 2575 2191 2731 
Q 1997 2953 1519 2953 
Q 1200 2953 1036 2831 
Q 872 2709 872 2509 
Q 872 2291 1088 2159 
Q 1213 2081 1456 2022 
L 1828 1931 
Q 2434 1784 2641 1647 
Q 2969 1431 2969 969 
Q 2969 522 2630 197 
Q 2291 -128 1597 -128 
Q 850 -128 539 211 
Q 228 550 206 1050 
z
M 1578 3428 
L 1578 3428 
z
" transform="scale(0.015625)"/>
       <path id="Helvetica-69" d="M 413 0 
L 413 3331 
L 984 3331 
L 984 0 
L 413 0 
z
M 413 3953 
L 413 4591 
L 984 4591 
L 984 3953 
L 413 3953 
z
" transform="scale(0.015625)"/>
       <path id="Helvetica-79" d="M 66 3347 
L 703 3347 
L 1600 622 
L 2503 3347 
L 3125 3347 
Q 3006 3025 2597 1878 
Q 2291 1016 2084 472 
Q 1597 -809 1397 -1090 
Q 1197 -1372 709 -1372 
Q 591 -1372 527 -1362 
Q 463 -1353 369 -1328 
L 369 -816 
Q 516 -856 581 -865 
Q 647 -875 697 -875 
Q 853 -875 926 -823 
Q 1000 -772 1050 -697 
Q 1066 -672 1162 -440 
Q 1259 -209 1303 -97 
L 66 3347 
z
M 1597 3428 
L 1597 3428 
z
" transform="scale(0.015625)"/>
      </defs>
      <use xlink:href="#Helvetica-44"/>
      <use xlink:href="#Helvetica-65" x="72.216797"/>
      <use xlink:href="#Helvetica-6e" x="127.832031"/>
      <use xlink:href="#Helvetica-73" x="183.447266"/>
      <use xlink:href="#Helvetica-69" x="233.447266"/>
      <use xlink:href="#Helvetica-74" x="255.664062"/>
      <use xlink:href="#Helvetica-79" x="283.447266"/>
     </g>
    </g>
   </g>
   <g id="patch_3">
    <path d="M 27.35125 302.90875 
L 27.35125 0 
" style="fill: none; stroke: #000000; stroke-width: 0.8; stroke-linejoin: miter; stroke-linecap: square"/>
   </g>
   <g id="patch_4">
    <path d="M 435.93125 302.90875 
L 435.93125 0 
" style="fill: none; stroke: #000000; stroke-width: 0.8; stroke-linejoin: miter; stroke-linecap: square"/>
   </g>
   <g id="patch_5">
    <path d="M 27.35125 302.90875 
L 435.93125 302.90875 
" style="fill: none; stroke: #000000; stroke-width: 0.8; stroke-linejoin: miter; stroke-linecap: square"/>
   </g>
   <g id="patch_6">
    <path d="M 27.35125 0 
L 435.93125 0 
" style="fill: none; stroke: #000000; stroke-width: 0.8; stroke-linejoin: miter; stroke-linecap: square"/>
   </g>
   <g id="legend_1">
    <g id="patch_7">
     <path d="M 370.4875 52.1275 
L 430.33125 52.1275 
Q 431.93125 52.1275 431.93125 50.5275 
L 431.93125 5.6 
Q 431.93125 4 430.33125 4 
L 370.4875 4 
Q 368.8875 4 368.8875 5.6 
L 368.8875 50.5275 
Q 368.8875 52.1275 370.4875 52.1275 
z
" style="fill: #ffffff; opacity: 0.8; stroke: #cccccc; stroke-linejoin: miter"/>
    </g>
    <g id="patch_8">
     <path d="M 372.0875 12.93875 
L 388.0875 12.93875 
L 388.0875 7.33875 
L 372.0875 7.33875 
z
" style="fill: #1f77b4; fill-opacity: 0.25; stroke: #1f77b4; stroke-linejoin: miter"/>
    </g>
    <g id="text_19">
     <!-- CNN -->
     <g transform="translate(394.4875 12.93875) scale(0.08 -0.08)">
      <defs>
       <path id="Helvetica-43" d="M 281 2344 
Q 281 3359 819 4009 
Q 1400 4716 2422 4716 
Q 3294 4716 3775 4256 
Q 4256 3797 4309 3213 
L 3703 3213 
Q 3600 3656 3292 3915 
Q 2984 4175 2428 4175 
Q 1750 4175 1333 3698 
Q 916 3222 916 2238 
Q 916 1431 1292 929 
Q 1669 428 2416 428 
Q 3103 428 3463 956 
Q 3653 1234 3747 1688 
L 4353 1688 
Q 4272 963 3816 472 
Q 3269 -119 2341 -119 
Q 1541 -119 997 366 
Q 281 1006 281 2344 
z
M 2297 4716 
L 2297 4716 
z
" transform="scale(0.015625)"/>
       <path id="Helvetica-4e" d="M 488 0 
L 488 4591 
L 1222 4591 
L 3541 872 
L 3541 4591 
L 4131 4591 
L 4131 0 
L 3434 0 
L 1081 3716 
L 1081 0 
L 488 0 
z
M 2269 4591 
L 2269 4591 
z
" transform="scale(0.015625)"/>
      </defs>
      <use xlink:href="#Helvetica-43"/>
      <use xlink:href="#Helvetica-4e" x="72.216797"/>
      <use xlink:href="#Helvetica-4e" x="144.433594"/>
     </g>
    </g>
    <g id="patch_9">
     <path d="M 372.0875 24.345 
L 388.0875 24.345 
L 388.0875 18.745 
L 372.0875 18.745 
z
" style="fill: #ff7f0e; fill-opacity: 0.25; stroke: #ff7f0e; stroke-linejoin: miter"/>
    </g>
    <g id="text_20">
     <!-- Center -->
     <g transform="translate(394.4875 24.345) scale(0.08 -0.08)">
      <use xlink:href="#Helvetica-43"/>
      <use xlink:href="#Helvetica-65" x="72.216797"/>
      <use xlink:href="#Helvetica-6e" x="127.832031"/>
      <use xlink:href="#Helvetica-74" x="183.447266"/>
      <use xlink:href="#Helvetica-65" x="211.230469"/>
      <use xlink:href="#Helvetica-72" x="266.845703"/>
     </g>
    </g>
    <g id="patch_10">
     <path d="M 372.0875 35.75125 
L 388.0875 35.75125 
L 388.0875 30.15125 
L 372.0875 30.15125 
z
" style="fill: #2ca02c; fill-opacity: 0.25; stroke: #2ca02c; stroke-linejoin: miter"/>
    </g>
    <g id="text_21">
     <!-- SVR -->
     <g transform="translate(394.4875 35.75125) scale(0.08 -0.08)">
      <defs>
       <path id="Helvetica-53" d="M 309 1481 
L 894 1481 
Q 916 1091 1078 847 
Q 1388 391 2169 391 
Q 2519 391 2806 491 
Q 3363 684 3363 1184 
Q 3363 1559 3128 1719 
Q 2891 1875 2384 1991 
L 1763 2131 
Q 1153 2269 900 2434 
Q 463 2722 463 3294 
Q 463 3913 891 4309 
Q 1319 4706 2103 4706 
Q 2825 4706 3329 4357 
Q 3834 4009 3834 3244 
L 3250 3244 
Q 3203 3613 3050 3809 
Q 2766 4169 2084 4169 
Q 1534 4169 1293 3937 
Q 1053 3706 1053 3400 
Q 1053 3063 1334 2906 
Q 1519 2806 2169 2656 
L 2813 2509 
Q 3278 2403 3531 2219 
Q 3969 1897 3969 1284 
Q 3969 522 3414 194 
Q 2859 -134 2125 -134 
Q 1269 -134 784 303 
Q 309 728 309 1453 
Q 309 1466 309 1481 
z
M 2150 4716 
L 2150 4716 
z
" transform="scale(0.015625)"/>
       <path id="Helvetica-56" d="M 163 4591 
L 850 4591 
L 2169 681 
L 3472 4591 
L 4169 4591 
L 2494 0 
L 1834 0 
L 163 4591 
z
" transform="scale(0.015625)"/>
       <path id="Helvetica-52" d="M 563 0 
L 563 4591 
L 2688 4591 
Q 3213 4591 3553 4438 
Q 4200 4144 4200 3353 
Q 4200 2941 4029 2678 
Q 3859 2416 3553 2256 
Q 3822 2147 3958 1969 
Q 4094 1791 4109 1391 
L 4131 775 
Q 4141 513 4175 384 
Q 4231 166 4375 103 
L 4375 0 
L 3613 0 
Q 3581 59 3562 153 
Q 3544 247 3531 516 
L 3494 1281 
Q 3472 1731 3159 1884 
Q 2981 1969 2600 1969 
L 1184 1969 
L 1184 0 
L 563 0 
z
M 1184 2488 
L 2622 2488 
Q 3059 2488 3314 2663 
Q 3569 2838 3569 3294 
Q 3569 3784 3213 3963 
Q 3022 4056 2703 4056 
L 1184 4056 
L 1184 2488 
z
" transform="scale(0.015625)"/>
      </defs>
      <use xlink:href="#Helvetica-53"/>
      <use xlink:href="#Helvetica-56" x="66.699219"/>
      <use xlink:href="#Helvetica-52" x="133.398438"/>
     </g>
    </g>
    <g id="patch_11">
     <path d="M 372.0875 47.1575 
L 388.0875 47.1575 
L 388.0875 41.5575 
L 372.0875 41.5575 
z
" style="fill: #d62728; fill-opacity: 0.25; stroke: #d62728; stroke-linejoin: miter"/>
    </g>
    <g id="text_22">
     <!-- Vergence -->
     <g transform="translate(394.4875 47.1575) scale(0.08 -0.08)">
      <defs>
       <path id="Helvetica-67" d="M 191 1622 
Q 191 2463 602 2934 
Q 1013 3406 1594 3406 
Q 1988 3406 2281 3213 
Q 2441 3103 2606 2894 
L 2606 3316 
L 3125 3316 
L 3125 272 
Q 3125 -366 2938 -734 
Q 2588 -1416 1616 -1416 
Q 1075 -1416 706 -1173 
Q 338 -931 294 -416 
L 866 -416 
Q 906 -641 1028 -763 
Q 1219 -950 1628 -950 
Q 2275 -950 2475 -494 
Q 2584 -244 2584 366 
Q 2584 416 2584 466 
Q 2416 209 2178 84 
Q 1941 -41 1550 -41 
Q 1006 -41 598 345 
Q 191 731 191 1622 
z
M 769 1575 
Q 769 1009 998 714 
Q 1228 419 1616 419 
Q 2222 419 2469 966 
Q 2606 1275 2606 1688 
Q 2606 2309 2350 2609 
Q 2094 2909 1697 2909 
Q 1103 2909 884 2353 
Q 769 2056 769 1575 
z
M 1659 3428 
L 1659 3428 
z
" transform="scale(0.015625)"/>
       <path id="Helvetica-63" d="M 184 1581 
Q 184 2463 612 2953 
Q 1041 3444 1703 3444 
Q 2269 3444 2623 3169 
Q 2978 2894 3050 2222 
L 2503 2222 
Q 2453 2531 2275 2736 
Q 2097 2941 1703 2941 
Q 1166 2941 934 2416 
Q 784 2075 784 1575 
Q 784 1072 996 728 
Q 1209 384 1666 384 
Q 2016 384 2220 598 
Q 2425 813 2503 1184 
L 3050 1184 
Q 2956 519 2581 211 
Q 2206 -97 1622 -97 
Q 966 -97 575 383 
Q 184 863 184 1581 
z
M 1616 3428 
L 1616 3428 
z
" transform="scale(0.015625)"/>
      </defs>
      <use xlink:href="#Helvetica-56"/>
      <use xlink:href="#Helvetica-65" x="66.699219"/>
      <use xlink:href="#Helvetica-72" x="122.314453"/>
      <use xlink:href="#Helvetica-67" x="155.615234"/>
      <use xlink:href="#Helvetica-65" x="211.230469"/>
      <use xlink:href="#Helvetica-6e" x="266.845703"/>
      <use xlink:href="#Helvetica-63" x="322.460938"/>
      <use xlink:href="#Helvetica-65" x="372.460938"/>
     </g>
    </g>
   </g>
  </g>
 </g>
 <defs>
  <clipPath id="pfa5c2d3d1e">
   <rect x="27.35125" y="0" width="408.58" height="302.90875"/>
  </clipPath>
 </defs>
</svg>
