<?xml version="1.0" encoding="utf-8" standalone="no"?>
<!DOCTYPE svg PUBLIC "-//W3C//DTD SVG 1.1//EN"
  "http://www.w3.org/Graphics/SVG/1.1/DTD/svg11.dtd">
<svg xmlns:xlink="http://www.w3.org/1999/xlink" width="222.948376pt" height="101.720313pt" viewBox="0 0 222.948376 101.720313" xmlns="http://www.w3.org/2000/svg" version="1.1">
 <metadata>
  <rdf:RDF xmlns:dc="http://purl.org/dc/elements/1.1/" xmlns:cc="http://creativecommons.org/ns#" xmlns:rdf="http://www.w3.org/1999/02/22-rdf-syntax-ns#">
   <cc:Work>
    <dc:type rdf:resource="http://purl.org/dc/dcmitype/StillImage"/>
    <dc:date>2025-01-10T15:20:11.423823</dc:date>
    <dc:format>image/svg+xml</dc:format>
    <dc:creator>
     <cc:Agent>
      <dc:title>Matplotlib v3.8.4, https://matplotlib.org/</dc:title>
     </cc:Agent>
    </dc:creator>
   </cc:Work>
  </rdf:RDF>
 </metadata>
 <defs>
  <style type="text/css">*{stroke-linejoin: round; stroke-linecap: butt}</style>
 </defs>
 <g id="figure_1">
  <g id="patch_1">
   <path d="M 0 101.720313 
L 222.948376 101.720313 
L 222.948376 0 
L 0 0 
z
" style="fill: #ffffff"/>
  </g>
  <g id="axes_1">
   <g id="patch_2">
    <path d="M 28.34625 74.354063 
L 107.162313 74.354063 
L 107.162313 0 
L 28.34625 0 
z
" style="fill: #ffffff"/>
   </g>
   <g id="patch_3">
    <path d="M 32.42937 70.974333 
L 32.143619 70.974333 
L 32.143619 51.661589 
L 32.42937 51.661589 
z
" clip-path="url(#p2de195332f)" style="fill: #bcbddc"/>
   </g>
   <g id="patch_4">
    <path d="M 32.42937 46.833403 
L 50.838173 46.833403 
L 50.838173 27.52066 
L 32.42937 27.52066 
z
" clip-path="url(#p2de195332f)" style="fill: #9e9ac8"/>
   </g>
   <g id="patch_5">
    <path d="M 32.42937 22.692474 
L 102.708527 22.692474 
L 102.708527 3.37973 
L 32.42937 3.37973 
z
" clip-path="url(#p2de195332f)" style="fill: #756bb1"/>
   </g>
   <g id="matplotlib.axis_1">
    <g id="xtick_1">
     <g id="line2d_1">
      <defs>
       <path id="m1fdffcee81" d="M 0 0 
L 0 3.5 
" style="stroke: #000000; stroke-width: 0.8"/>
      </defs>
      <g>
       <use xlink:href="#m1fdffcee81" x="32.42937" y="74.354063" style="stroke: #000000; stroke-width: 0.8"/>
      </g>
     </g>
     <g id="text_1">
      <!-- 0 -->
      <g transform="translate(30.204995 87.092813) scale(0.08 -0.08)">
       <defs>
        <path id="Helvetica-30" d="M 200 2147 
Q 200 2909 397 3456 
Q 766 4475 1731 4475 
Q 2600 4475 2988 3759 
Q 3288 3206 3288 2244 
Q 3288 1331 3016 734 
Q 2622 -122 1728 -122 
Q 922 -122 528 578 
Q 200 1163 200 2147 
z
M 809 2125 
Q 809 1441 956 1025 
Q 1181 391 1725 391 
Q 2163 391 2422 778 
Q 2681 1166 2681 2222 
Q 2681 2984 2493 3476 
Q 2306 3969 1766 3969 
Q 1269 3969 1039 3501 
Q 809 3034 809 2125 
z
" transform="scale(0.015625)"/>
       </defs>
       <use xlink:href="#Helvetica-30"/>
      </g>
     </g>
    </g>
    <g id="xtick_2">
     <g id="line2d_2">
      <g>
       <use xlink:href="#m1fdffcee81" x="71.530852" y="74.354063" style="stroke: #000000; stroke-width: 0.8"/>
      </g>
     </g>
     <g id="text_2">
      <!-- 5 -->
      <g transform="translate(69.306477 87.092813) scale(0.08 -0.08)">
       <defs>
        <path id="Helvetica-35" d="M 206 1141 
L 791 1141 
Q 847 659 1238 475 
Q 1438 381 1700 381 
Q 2200 381 2440 700 
Q 2681 1019 2681 1406 
Q 2681 1875 2395 2131 
Q 2109 2388 1709 2388 
Q 1419 2388 1211 2275 
Q 1003 2163 856 1963 
L 369 1991 
L 709 4400 
L 3034 4400 
L 3034 3856 
L 1131 3856 
L 941 2613 
Q 1097 2731 1238 2791 
Q 1488 2894 1816 2894 
Q 2431 2894 2859 2497 
Q 3288 2100 3288 1491 
Q 3288 856 2895 371 
Q 2503 -113 1644 -113 
Q 1097 -113 676 195 
Q 256 503 206 1141 
z
" transform="scale(0.015625)"/>
       </defs>
       <use xlink:href="#Helvetica-35"/>
      </g>
     </g>
    </g>
    <g id="text_3">
     <!-- MSE - MSE Base [m$^2$] -->
     <g transform="translate(28.034281 99.972813) scale(0.08 -0.08)">
      <defs>
       <path id="Helvetica-4d" d="M 472 0 
L 472 4591 
L 1363 4591 
L 2681 709 
L 3991 4591 
L 4872 4591 
L 4872 0 
L 4281 0 
L 4281 2709 
Q 4281 2850 4287 3175 
Q 4294 3500 4294 3872 
L 2984 0 
L 2369 0 
L 1050 3872 
L 1050 3731 
Q 1050 3563 1058 3217 
Q 1066 2872 1066 2709 
L 1066 0 
L 472 0 
z
" transform="scale(0.015625)"/>
       <path id="Helvetica-53" d="M 309 1481 
L 894 1481 
Q 916 1091 1078 847 
Q 1388 391 2169 391 
Q 2519 391 2806 491 
Q 3363 684 3363 1184 
Q 3363 1559 3128 1719 
Q 2891 1875 2384 1991 
L 1763 2131 
Q 1153 2269 900 2434 
Q 463 2722 463 3294 
Q 463 3913 891 4309 
Q 1319 4706 2103 4706 
Q 2825 4706 3329 4357 
Q 3834 4009 3834 3244 
L 3250 3244 
Q 3203 3613 3050 3809 
Q 2766 4169 2084 4169 
Q 1534 4169 1293 3937 
Q 1053 3706 1053 3400 
Q 1053 3063 1334 2906 
Q 1519 2806 2169 2656 
L 2813 2509 
Q 3278 2403 3531 2219 
Q 3969 1897 3969 1284 
Q 3969 522 3414 194 
Q 2859 -134 2125 -134 
Q 1269 -134 784 303 
Q 309 728 309 1453 
Q 309 1466 309 1481 
z
M 2150 4716 
L 2150 4716 
z
" transform="scale(0.015625)"/>
       <path id="Helvetica-45" d="M 547 0 
L 547 4591 
L 3894 4591 
L 3894 4028 
L 1153 4028 
L 1153 2634 
L 3688 2634 
L 3688 2103 
L 1153 2103 
L 1153 547 
L 3941 547 
L 3941 0 
L 547 0 
z
M 2244 4591 
L 2244 4591 
z
" transform="scale(0.015625)"/>
       <path id="Helvetica-20" transform="scale(0.015625)"/>
       <path id="Helvetica-2d" d="M 266 1494 
L 266 2072 
L 1834 2072 
L 1834 1494 
L 266 1494 
z
" transform="scale(0.015625)"/>
       <path id="Helvetica-42" d="M 472 0 
L 472 4591 
L 2444 4591 
Q 3250 4591 3591 4109 
Q 3791 3825 3791 3453 
Q 3791 3019 3544 2741 
Q 3416 2594 3175 2472 
Q 3528 2338 3703 2169 
Q 4013 1869 4013 1341 
Q 4013 897 3734 538 
Q 3319 0 2413 0 
L 472 0 
z
M 1081 531 
L 2422 531 
Q 2994 531 3238 863 
Q 3391 1072 3391 1369 
Q 3391 1869 2944 2050 
Q 2706 2147 2316 2147 
L 1081 2147 
L 1081 531 
z
M 1081 2650 
L 2213 2650 
Q 2606 2650 2825 2759 
Q 3169 2931 3169 3378 
Q 3169 3828 2803 3984 
Q 2597 4072 2191 4072 
L 1081 4072 
L 1081 2650 
z
" transform="scale(0.015625)"/>
       <path id="Helvetica-61" d="M 256 878 
Q 256 1344 547 1600 
Q 838 1856 1309 1916 
L 2206 2028 
Q 2400 2053 2466 2191 
Q 2503 2266 2503 2406 
Q 2503 2694 2298 2823 
Q 2094 2953 1713 2953 
Q 1272 2953 1088 2716 
Q 984 2584 953 2325 
L 428 2325 
Q 444 2944 830 3186 
Q 1216 3428 1725 3428 
Q 2316 3428 2684 3203 
Q 3050 2978 3050 2503 
L 3050 575 
Q 3050 488 3086 434 
Q 3122 381 3238 381 
Q 3275 381 3322 386 
Q 3369 391 3422 400 
L 3422 -16 
Q 3291 -53 3222 -62 
Q 3153 -72 3034 -72 
Q 2744 -72 2613 134 
Q 2544 244 2516 444 
Q 2344 219 2022 53 
Q 1700 -113 1313 -113 
Q 847 -113 551 170 
Q 256 453 256 878 
z
M 844 891 
Q 844 647 1022 506 
Q 1200 366 1444 366 
Q 1741 366 2019 503 
Q 2488 731 2488 1250 
L 2488 1703 
Q 2384 1638 2221 1594 
Q 2059 1550 1903 1531 
L 1563 1488 
Q 1256 1447 1103 1359 
Q 844 1213 844 891 
z
M 1741 3428 
L 1741 3428 
z
" transform="scale(0.015625)"/>
       <path id="Helvetica-73" d="M 206 1050 
L 747 1050 
Q 772 769 888 619 
Q 1100 347 1625 347 
Q 1938 347 2175 483 
Q 2413 619 2413 903 
Q 2413 1119 2222 1231 
Q 2100 1300 1741 1391 
L 1294 1503 
Q 866 1609 663 1741 
Q 300 1969 300 2372 
Q 300 2847 642 3140 
Q 984 3434 1563 3434 
Q 2319 3434 2653 2991 
Q 2856 2719 2856 2403 
Q 2856 2394 2856 2384 
L 2325 2384 
Q 2309 2575 2191 2731 
Q 1997 2953 1519 2953 
Q 1200 2953 1036 2831 
Q 872 2709 872 2509 
Q 872 2291 1088 2159 
Q 1213 2081 1456 2022 
L 1828 1931 
Q 2434 1784 2641 1647 
Q 2969 1431 2969 969 
Q 2969 522 2630 197 
Q 2291 -128 1597 -128 
Q 850 -128 539 211 
Q 228 550 206 1050 
z
M 1578 3428 
L 1578 3428 
z
" transform="scale(0.015625)"/>
       <path id="Helvetica-65" d="M 225 1609 
Q 225 2416 662 2919 
Q 1100 3422 1806 3422 
Q 2163 3422 2497 3255 
Q 2831 3088 3006 2822 
Q 3175 2569 3231 2231 
Q 3281 2000 3281 1494 
L 828 1494 
Q 844 984 1069 676 
Q 1294 369 1766 369 
Q 2206 369 2469 659 
Q 2619 828 2681 1050 
L 3234 1050 
Q 3213 866 3089 639 
Q 2966 413 2813 269 
Q 2556 19 2178 -69 
Q 1975 -119 1719 -119 
Q 1094 -119 659 336 
Q 225 791 225 1609 
z
M 844 1941 
L 2703 1941 
Q 2669 2306 2544 2525 
Q 2313 2931 1772 2931 
Q 1384 2931 1121 2651 
Q 859 2372 844 1941 
z
M 1753 3428 
L 1753 3428 
z
" transform="scale(0.015625)"/>
       <path id="Helvetica-5b" d="M 400 -1259 
L 400 4622 
L 1600 4622 
L 1600 4163 
L 931 4163 
L 931 -800 
L 1600 -800 
L 1600 -1259 
L 400 -1259 
z
" transform="scale(0.015625)"/>
       <path id="Helvetica-6d" d="M 413 0 
L 413 3347 
L 969 3347 
L 969 2872 
Q 1169 3119 1331 3231 
Q 1609 3422 1963 3422 
Q 2363 3422 2606 3225 
Q 2744 3113 2856 2894 
Q 3044 3163 3297 3292 
Q 3550 3422 3866 3422 
Q 4541 3422 4784 2934 
Q 4916 2672 4916 2228 
L 4916 0 
L 4331 0 
L 4331 2325 
Q 4331 2659 4164 2784 
Q 3997 2909 3756 2909 
Q 3425 2909 3186 2687 
Q 2947 2466 2947 1947 
L 2947 0 
L 2375 0 
L 2375 2184 
Q 2375 2525 2294 2681 
Q 2166 2916 1816 2916 
Q 1497 2916 1236 2669 
Q 975 2422 975 1775 
L 975 0 
L 413 0 
z
" transform="scale(0.015625)"/>
       <path id="DejaVuSans-32" d="M 1228 531 
L 3431 531 
L 3431 0 
L 469 0 
L 469 531 
Q 828 903 1448 1529 
Q 2069 2156 2228 2338 
Q 2531 2678 2651 2914 
Q 2772 3150 2772 3378 
Q 2772 3750 2511 3984 
Q 2250 4219 1831 4219 
Q 1534 4219 1204 4116 
Q 875 4013 500 3803 
L 500 4441 
Q 881 4594 1212 4672 
Q 1544 4750 1819 4750 
Q 2544 4750 2975 4387 
Q 3406 4025 3406 3419 
Q 3406 3131 3298 2873 
Q 3191 2616 2906 2266 
Q 2828 2175 2409 1742 
Q 1991 1309 1228 531 
z
" transform="scale(0.015625)"/>
       <path id="Helvetica-5d" d="M 147 -800 
L 813 -800 
L 813 4163 
L 147 4163 
L 147 4622 
L 1347 4622 
L 1347 -1259 
L 147 -1259 
L 147 -800 
z
" transform="scale(0.015625)"/>
      </defs>
      <use xlink:href="#Helvetica-4d" transform="translate(0 0.765625)"/>
      <use xlink:href="#Helvetica-53" transform="translate(83.300781 0.765625)"/>
      <use xlink:href="#Helvetica-45" transform="translate(150 0.765625)"/>
      <use xlink:href="#Helvetica-20" transform="translate(216.699219 0.765625)"/>
      <use xlink:href="#Helvetica-2d" transform="translate(244.482422 0.765625)"/>
      <use xlink:href="#Helvetica-20" transform="translate(277.783203 0.765625)"/>
      <use xlink:href="#Helvetica-4d" transform="translate(305.566406 0.765625)"/>
      <use xlink:href="#Helvetica-53" transform="translate(388.867188 0.765625)"/>
      <use xlink:href="#Helvetica-45" transform="translate(455.566406 0.765625)"/>
      <use xlink:href="#Helvetica-20" transform="translate(522.265625 0.765625)"/>
      <use xlink:href="#Helvetica-42" transform="translate(550.048828 0.765625)"/>
      <use xlink:href="#Helvetica-61" transform="translate(616.748047 0.765625)"/>
      <use xlink:href="#Helvetica-73" transform="translate(672.363281 0.765625)"/>
      <use xlink:href="#Helvetica-65" transform="translate(722.363281 0.765625)"/>
      <use xlink:href="#Helvetica-20" transform="translate(777.978516 0.765625)"/>
      <use xlink:href="#Helvetica-5b" transform="translate(805.761719 0.765625)"/>
      <use xlink:href="#Helvetica-6d" transform="translate(833.544922 0.765625)"/>
      <use xlink:href="#DejaVuSans-32" transform="translate(917.802734 39.046875) scale(0.7)"/>
      <use xlink:href="#Helvetica-5d" transform="translate(965.073242 0.765625)"/>
     </g>
    </g>
   </g>
   <g id="matplotlib.axis_2">
    <g id="ytick_1">
     <g id="line2d_3">
      <defs>
       <path id="m5faa38b3a1" d="M 0 0 
L -3.5 0 
" style="stroke: #000000; stroke-width: 0.8"/>
      </defs>
      <g>
       <use xlink:href="#m5faa38b3a1" x="28.34625" y="61.317961" style="stroke: #000000; stroke-width: 0.8"/>
      </g>
     </g>
     <g id="text_4">
      <!-- IPD -->
      <g transform="translate(8.01 64.187336) scale(0.08 -0.08)">
       <defs>
        <path id="Helvetica-49" d="M 628 0 
L 628 4591 
L 1256 4591 
L 1256 0 
L 628 0 
z
" transform="scale(0.015625)"/>
        <path id="Helvetica-50" d="M 547 0 
L 547 4591 
L 2613 4591 
Q 3225 4591 3600 4245 
Q 3975 3900 3975 3275 
Q 3975 2738 3640 2339 
Q 3306 1941 2613 1941 
L 1169 1941 
L 1169 0 
L 547 0 
z
M 1169 2466 
L 2406 2466 
Q 2825 2466 3086 2644 
Q 3347 2822 3347 3272 
Q 3347 3778 2972 3959 
Q 2766 4056 2406 4056 
L 1169 4056 
L 1169 2466 
z
" transform="scale(0.015625)"/>
        <path id="Helvetica-44" d="M 516 0 
L 516 4591 
L 2375 4591 
Q 3322 4591 3844 3919 
Q 4309 3313 4309 2366 
Q 4309 1634 4034 1044 
Q 3550 0 2369 0 
L 516 0 
z
M 1141 531 
L 2250 531 
Q 2566 531 2769 597 
Q 3131 719 3363 1066 
Q 3547 1344 3628 1778 
Q 3675 2038 3675 2259 
Q 3675 3113 3336 3584 
Q 2997 4056 2244 4056 
L 1141 4056 
L 1141 531 
z
" transform="scale(0.015625)"/>
       </defs>
       <use xlink:href="#Helvetica-49"/>
       <use xlink:href="#Helvetica-50" x="27.783203"/>
       <use xlink:href="#Helvetica-44" x="94.482422"/>
      </g>
     </g>
    </g>
    <g id="ytick_2">
     <g id="line2d_4">
      <g>
       <use xlink:href="#m5faa38b3a1" x="28.34625" y="37.177031" style="stroke: #000000; stroke-width: 0.8"/>
      </g>
     </g>
     <g id="text_5">
      <!-- ET -->
      <g transform="translate(11.12375 40.046406) scale(0.08 -0.08)">
       <defs>
        <path id="Helvetica-54" d="M 103 4044 
L 103 4591 
L 3828 4591 
L 3828 4044 
L 2281 4044 
L 2281 0 
L 1650 0 
L 1650 4044 
L 103 4044 
z
" transform="scale(0.015625)"/>
       </defs>
       <use xlink:href="#Helvetica-45"/>
       <use xlink:href="#Helvetica-54" x="66.699219"/>
      </g>
     </g>
    </g>
    <g id="ytick_3">
     <g id="line2d_5">
      <g>
       <use xlink:href="#m5faa38b3a1" x="28.34625" y="13.036102" style="stroke: #000000; stroke-width: 0.8"/>
      </g>
     </g>
     <g id="text_6">
      <!-- Depth -->
      <g transform="translate(0 15.914852) scale(0.08 -0.08)">
       <defs>
        <path id="Helvetica-70" d="M 369 -1334 
L 369 3331 
L 916 3331 
L 916 2888 
Q 1084 3116 1284 3241 
Q 1569 3428 1953 3428 
Q 2522 3428 2919 2992 
Q 3316 2556 3316 1747 
Q 3316 653 2744 184 
Q 2381 -113 1900 -113 
Q 1522 -113 1266 53 
Q 1116 147 931 375 
L 931 -1334 
L 369 -1334 
z
M 909 1556 
Q 909 1169 1025 897 
Q 1244 378 1825 378 
Q 2219 378 2480 708 
Q 2741 1038 2741 1694 
Q 2741 2094 2625 2381 
Q 2406 2934 1825 2934 
Q 1241 2934 1025 2350 
Q 909 2038 909 1556 
z
" transform="scale(0.015625)"/>
        <path id="Helvetica-74" d="M 72 2888 
L 72 3347 
L 525 3347 
L 525 4281 
L 1094 4281 
L 1094 3347 
L 1628 3347 
L 1628 2888 
L 1094 2888 
L 1094 703 
Q 1094 528 1213 469 
Q 1278 434 1431 434 
Q 1472 434 1519 436 
Q 1566 438 1628 444 
L 1628 0 
Q 1531 -28 1426 -40 
Q 1322 -53 1200 -53 
Q 806 -53 665 148 
Q 525 350 525 672 
L 525 2888 
L 72 2888 
z
" transform="scale(0.015625)"/>
        <path id="Helvetica-68" d="M 413 0 
L 413 4606 
L 975 4606 
L 975 2894 
Q 1175 3147 1334 3250 
Q 1606 3428 2013 3428 
Q 2741 3428 3000 2919 
Q 3141 2641 3141 2147 
L 3141 0 
L 2563 0 
L 2563 2109 
Q 2563 2478 2469 2650 
Q 2316 2925 1894 2925 
Q 1544 2925 1259 2684 
Q 975 2444 975 1775 
L 975 0 
L 413 0 
z
" transform="scale(0.015625)"/>
       </defs>
       <use xlink:href="#Helvetica-44"/>
       <use xlink:href="#Helvetica-65" x="72.216797"/>
       <use xlink:href="#Helvetica-70" x="127.832031"/>
       <use xlink:href="#Helvetica-74" x="183.447266"/>
       <use xlink:href="#Helvetica-68" x="211.230469"/>
      </g>
     </g>
    </g>
   </g>
   <g id="LineCollection_1">
    <path d="M 31.928798 61.317961 
L 32.35844 61.317961 
" clip-path="url(#p2de195332f)" style="fill: none; stroke: #000000; stroke-width: 1.5"/>
    <path d="M 50.088389 37.177031 
L 51.587958 37.177031 
" clip-path="url(#p2de195332f)" style="fill: none; stroke: #000000; stroke-width: 1.5"/>
    <path d="M 101.83729 13.036102 
L 103.579765 13.036102 
" clip-path="url(#p2de195332f)" style="fill: none; stroke: #000000; stroke-width: 1.5"/>
   </g>
   <g id="line2d_6">
    <defs>
     <path id="m2e6e81481c" d="M 0 5 
L 0 -5 
" style="stroke: #000000"/>
    </defs>
    <g clip-path="url(#p2de195332f)">
     <use xlink:href="#m2e6e81481c" x="31.928798" y="61.317961" style="stroke: #000000"/>
     <use xlink:href="#m2e6e81481c" x="50.088389" y="37.177031" style="stroke: #000000"/>
     <use xlink:href="#m2e6e81481c" x="101.83729" y="13.036102" style="stroke: #000000"/>
    </g>
   </g>
   <g id="line2d_7">
    <g clip-path="url(#p2de195332f)">
     <use xlink:href="#m2e6e81481c" x="32.35844" y="61.317961" style="stroke: #000000"/>
     <use xlink:href="#m2e6e81481c" x="51.587958" y="37.177031" style="stroke: #000000"/>
     <use xlink:href="#m2e6e81481c" x="103.579765" y="13.036102" style="stroke: #000000"/>
    </g>
   </g>
   <g id="line2d_8">
    <path d="M 32.42937 74.354063 
L 32.42937 0 
" clip-path="url(#p2de195332f)" style="fill: none; stroke-dasharray: 1.85,0.8; stroke-dashoffset: 0; stroke: #000000; stroke-width: 0.5"/>
   </g>
   <g id="patch_6">
    <path d="M 28.34625 74.354063 
L 28.34625 0 
" style="fill: none; stroke: #000000; stroke-width: 0.8; stroke-linejoin: miter; stroke-linecap: square"/>
   </g>
   <g id="patch_7">
    <path d="M 107.162313 74.354063 
L 107.162313 0 
" style="fill: none; stroke: #000000; stroke-width: 0.8; stroke-linejoin: miter; stroke-linecap: square"/>
   </g>
   <g id="patch_8">
    <path d="M 28.34625 74.354063 
L 107.162313 74.354063 
" style="fill: none; stroke: #000000; stroke-width: 0.8; stroke-linejoin: miter; stroke-linecap: square"/>
   </g>
   <g id="patch_9">
    <path d="M 28.34625 0 
L 107.162313 0 
" style="fill: none; stroke: #000000; stroke-width: 0.8; stroke-linejoin: miter; stroke-linecap: square"/>
   </g>
  </g>
  <g id="axes_2">
   <g id="patch_10">
    <path d="M 144.132313 74.354063 
L 222.948376 74.354063 
L 222.948376 0 
L 144.132313 0 
z
" style="fill: #ffffff"/>
   </g>
   <g id="patch_11">
    <path d="M 144.132313 70.974333 
L 144.205702 70.974333 
L 144.205702 51.661589 
L 144.132313 51.661589 
z
" clip-path="url(#p35546499f0)" style="fill: #bcbddc"/>
   </g>
   <g id="patch_12">
    <path d="M 144.132313 46.833403 
L 218.635685 46.833403 
L 218.635685 27.52066 
L 144.132313 27.52066 
z
" clip-path="url(#p35546499f0)" style="fill: #9e9ac8"/>
   </g>
   <g id="patch_13">
    <path d="M 144.132313 22.692474 
L 201.069836 22.692474 
L 201.069836 3.37973 
L 144.132313 3.37973 
z
" clip-path="url(#p35546499f0)" style="fill: #756bb1"/>
   </g>
   <g id="matplotlib.axis_3">
    <g id="xtick_3">
     <g id="line2d_9">
      <g>
       <use xlink:href="#m1fdffcee81" x="144.132313" y="74.354063" style="stroke: #000000; stroke-width: 0.8"/>
      </g>
     </g>
     <g id="text_7">
      <!-- 0.0 -->
      <g transform="translate(138.572313 87.092813) scale(0.08 -0.08)">
       <defs>
        <path id="Helvetica-2e" d="M 547 0 
L 547 681 
L 1200 681 
L 1200 0 
L 547 0 
z
" transform="scale(0.015625)"/>
       </defs>
       <use xlink:href="#Helvetica-30"/>
       <use xlink:href="#Helvetica-2e" x="55.615234"/>
       <use xlink:href="#Helvetica-30" x="83.398438"/>
      </g>
     </g>
    </g>
    <g id="xtick_4">
     <g id="line2d_10">
      <g>
       <use xlink:href="#m1fdffcee81" x="172.908252" y="74.354063" style="stroke: #000000; stroke-width: 0.8"/>
      </g>
     </g>
     <g id="text_8">
      <!-- 0.2 -->
      <g transform="translate(167.348252 87.092813) scale(0.08 -0.08)">
       <defs>
        <path id="Helvetica-32" d="M 200 0 
Q 231 578 439 1006 
Q 647 1434 1250 1784 
L 1850 2131 
Q 2253 2366 2416 2531 
Q 2672 2791 2672 3125 
Q 2672 3516 2437 3745 
Q 2203 3975 1813 3975 
Q 1234 3975 1013 3538 
Q 894 3303 881 2888 
L 309 2888 
Q 319 3472 525 3841 
Q 891 4491 1816 4491 
Q 2584 4491 2939 4075 
Q 3294 3659 3294 3150 
Q 3294 2613 2916 2231 
Q 2697 2009 2131 1694 
L 1703 1456 
Q 1397 1288 1222 1134 
Q 909 863 828 531 
L 3272 531 
L 3272 0 
L 200 0 
z
" transform="scale(0.015625)"/>
       </defs>
       <use xlink:href="#Helvetica-30"/>
       <use xlink:href="#Helvetica-2e" x="55.615234"/>
       <use xlink:href="#Helvetica-32" x="83.398438"/>
      </g>
     </g>
    </g>
    <g id="xtick_5">
     <g id="line2d_11">
      <g>
       <use xlink:href="#m1fdffcee81" x="201.684191" y="74.354063" style="stroke: #000000; stroke-width: 0.8"/>
      </g>
     </g>
     <g id="text_9">
      <!-- 0.4 -->
      <g transform="translate(196.124191 87.092813) scale(0.08 -0.08)">
       <defs>
        <path id="Helvetica-34" d="M 163 1094 
L 163 1644 
L 2213 4488 
L 2688 4488 
L 2688 1584 
L 3347 1584 
L 3347 1094 
L 2688 1094 
L 2688 0 
L 2125 0 
L 2125 1094 
L 163 1094 
z
M 681 1584 
L 2116 1584 
L 2116 3613 
L 681 1584 
z
" transform="scale(0.015625)"/>
       </defs>
       <use xlink:href="#Helvetica-30"/>
       <use xlink:href="#Helvetica-2e" x="55.615234"/>
       <use xlink:href="#Helvetica-34" x="83.398438"/>
      </g>
     </g>
    </g>
    <g id="text_10">
     <!-- MSE - MSE Base [dpt$^2$] -->
     <g transform="translate(141.580344 100.040313) scale(0.08 -0.08)">
      <defs>
       <path id="Helvetica-64" d="M 175 1603 
Q 175 2334 548 2870 
Q 922 3406 1616 3406 
Q 2000 3406 2259 3244 
Q 2409 3150 2600 2916 
L 2600 4606 
L 3141 4606 
L 3141 0 
L 2634 0 
L 2634 466 
Q 2438 156 2169 18 
Q 1900 -119 1553 -119 
Q 994 -119 584 351 
Q 175 822 175 1603 
z
M 769 1634 
Q 769 1097 997 734 
Q 1225 372 1728 372 
Q 2119 372 2370 708 
Q 2622 1044 2622 1672 
Q 2622 2306 2362 2611 
Q 2103 2916 1722 2916 
Q 1297 2916 1033 2591 
Q 769 2266 769 1634 
z
" transform="scale(0.015625)"/>
      </defs>
      <use xlink:href="#Helvetica-4d" transform="translate(0 0.765625)"/>
      <use xlink:href="#Helvetica-53" transform="translate(83.300781 0.765625)"/>
      <use xlink:href="#Helvetica-45" transform="translate(150 0.765625)"/>
      <use xlink:href="#Helvetica-20" transform="translate(216.699219 0.765625)"/>
      <use xlink:href="#Helvetica-2d" transform="translate(244.482422 0.765625)"/>
      <use xlink:href="#Helvetica-20" transform="translate(277.783203 0.765625)"/>
      <use xlink:href="#Helvetica-4d" transform="translate(305.566406 0.765625)"/>
      <use xlink:href="#Helvetica-53" transform="translate(388.867188 0.765625)"/>
      <use xlink:href="#Helvetica-45" transform="translate(455.566406 0.765625)"/>
      <use xlink:href="#Helvetica-20" transform="translate(522.265625 0.765625)"/>
      <use xlink:href="#Helvetica-42" transform="translate(550.048828 0.765625)"/>
      <use xlink:href="#Helvetica-61" transform="translate(616.748047 0.765625)"/>
      <use xlink:href="#Helvetica-73" transform="translate(672.363281 0.765625)"/>
      <use xlink:href="#Helvetica-65" transform="translate(722.363281 0.765625)"/>
      <use xlink:href="#Helvetica-20" transform="translate(777.978516 0.765625)"/>
      <use xlink:href="#Helvetica-5b" transform="translate(805.761719 0.765625)"/>
      <use xlink:href="#Helvetica-64" transform="translate(833.544922 0.765625)"/>
      <use xlink:href="#Helvetica-70" transform="translate(889.160156 0.765625)"/>
      <use xlink:href="#Helvetica-74" transform="translate(944.775391 0.765625)"/>
      <use xlink:href="#DejaVuSans-32" transform="translate(973.515625 39.046875) scale(0.7)"/>
      <use xlink:href="#Helvetica-5d" transform="translate(1020.786133 0.765625)"/>
     </g>
    </g>
   </g>
   <g id="matplotlib.axis_4">
    <g id="ytick_4">
     <g id="line2d_12">
      <g>
       <use xlink:href="#m5faa38b3a1" x="144.132313" y="61.317961" style="stroke: #000000; stroke-width: 0.8"/>
      </g>
     </g>
     <g id="text_11">
      <!-- IPD -->
      <g transform="translate(123.796063 64.187336) scale(0.08 -0.08)">
       <use xlink:href="#Helvetica-49"/>
       <use xlink:href="#Helvetica-50" x="27.783203"/>
       <use xlink:href="#Helvetica-44" x="94.482422"/>
      </g>
     </g>
    </g>
    <g id="ytick_5">
     <g id="line2d_13">
      <g>
       <use xlink:href="#m5faa38b3a1" x="144.132313" y="37.177031" style="stroke: #000000; stroke-width: 0.8"/>
      </g>
     </g>
     <g id="text_12">
      <!-- ET -->
      <g transform="translate(126.909813 40.046406) scale(0.08 -0.08)">
       <use xlink:href="#Helvetica-45"/>
       <use xlink:href="#Helvetica-54" x="66.699219"/>
      </g>
     </g>
    </g>
    <g id="ytick_6">
     <g id="line2d_14">
      <g>
       <use xlink:href="#m5faa38b3a1" x="144.132313" y="13.036102" style="stroke: #000000; stroke-width: 0.8"/>
      </g>
     </g>
     <g id="text_13">
      <!-- Depth -->
      <g transform="translate(115.786063 15.914852) scale(0.08 -0.08)">
       <use xlink:href="#Helvetica-44"/>
       <use xlink:href="#Helvetica-65" x="72.216797"/>
       <use xlink:href="#Helvetica-70" x="127.832031"/>
       <use xlink:href="#Helvetica-74" x="183.447266"/>
       <use xlink:href="#Helvetica-68" x="211.230469"/>
      </g>
     </g>
    </g>
   </g>
   <g id="LineCollection_2">
    <path d="M 144.185127 61.317961 
L 144.226278 61.317961 
" clip-path="url(#p35546499f0)" style="fill: none; stroke: #000000; stroke-width: 1.5"/>
    <path d="M 218.076141 37.177031 
L 219.19523 37.177031 
" clip-path="url(#p35546499f0)" style="fill: none; stroke: #000000; stroke-width: 1.5"/>
    <path d="M 200.751276 13.036102 
L 201.388397 13.036102 
" clip-path="url(#p35546499f0)" style="fill: none; stroke: #000000; stroke-width: 1.5"/>
   </g>
   <g id="line2d_15">
    <g clip-path="url(#p35546499f0)">
     <use xlink:href="#m2e6e81481c" x="144.185127" y="61.317961" style="stroke: #000000"/>
     <use xlink:href="#m2e6e81481c" x="218.076141" y="37.177031" style="stroke: #000000"/>
     <use xlink:href="#m2e6e81481c" x="200.751276" y="13.036102" style="stroke: #000000"/>
    </g>
   </g>
   <g id="line2d_16">
    <g clip-path="url(#p35546499f0)">
     <use xlink:href="#m2e6e81481c" x="144.226278" y="61.317961" style="stroke: #000000"/>
     <use xlink:href="#m2e6e81481c" x="219.19523" y="37.177031" style="stroke: #000000"/>
     <use xlink:href="#m2e6e81481c" x="201.388397" y="13.036102" style="stroke: #000000"/>
    </g>
   </g>
   <g id="line2d_17">
    <path d="M 144.132313 74.354063 
L 144.132313 0 
" clip-path="url(#p35546499f0)" style="fill: none; stroke-dasharray: 1.85,0.8; stroke-dashoffset: 0; stroke: #000000; stroke-width: 0.5"/>
   </g>
   <g id="patch_14">
    <path d="M 144.132313 74.354063 
L 144.132313 0 
" style="fill: none; stroke: #000000; stroke-width: 0.8; stroke-linejoin: miter; stroke-linecap: square"/>
   </g>
   <g id="patch_15">
    <path d="M 222.948376 74.354063 
L 222.948376 0 
" style="fill: none; stroke: #000000; stroke-width: 0.8; stroke-linejoin: miter; stroke-linecap: square"/>
   </g>
   <g id="patch_16">
    <path d="M 144.132313 74.354063 
L 222.948376 74.354063 
" style="fill: none; stroke: #000000; stroke-width: 0.8; stroke-linejoin: miter; stroke-linecap: square"/>
   </g>
   <g id="patch_17">
    <path d="M 144.132313 0 
L 222.948376 0 
" style="fill: none; stroke: #000000; stroke-width: 0.8; stroke-linejoin: miter; stroke-linecap: square"/>
   </g>
  </g>
 </g>
 <defs>
  <clipPath id="p2de195332f">
   <rect x="28.34625" y="0" width="78.816063" height="74.354063"/>
  </clipPath>
  <clipPath id="p35546499f0">
   <rect x="144.132313" y="0" width="78.816063" height="74.354063"/>
  </clipPath>
 </defs>
</svg>
